<?xml version="1.0" encoding="UTF-8" standalone="no"?>
<!-- Created with Inkscape (http://www.inkscape.org/) -->

<svg
   xmlns:dc="http://purl.org/dc/elements/1.1/"
   xmlns:cc="http://creativecommons.org/ns#"
   xmlns:rdf="http://www.w3.org/1999/02/22-rdf-syntax-ns#"
   xmlns:svg="http://www.w3.org/2000/svg"
   xmlns="http://www.w3.org/2000/svg"
   xmlns:sodipodi="http://sodipodi.sourceforge.net/DTD/sodipodi-0.dtd"
   xmlns:inkscape="http://www.inkscape.org/namespaces/inkscape"
   version="1.1"
   id="svg2"
   xml:space="preserve"
   width="509.45016"
   height="480.96277"
   viewBox="0 0 509.45017 480.96277"
   sodipodi:docname="ukorzenianie-02.svg"
   inkscape:export-filename="/home/grzeg/Dokumenty/filogenetyka/wyklady/pics-drzewa/ukorzenianie-02.png"
   inkscape:export-xdpi="56.486702"
   inkscape:export-ydpi="56.486702"
   inkscape:version="0.92.2 (5c3e80d, 2017-08-06)"><metadata
     id="metadata8"><rdf:RDF><cc:Work
         rdf:about=""><dc:format>image/svg+xml</dc:format><dc:type
           rdf:resource="http://purl.org/dc/dcmitype/StillImage" /><dc:title></dc:title></cc:Work></rdf:RDF></metadata><defs
     id="defs6" /><sodipodi:namedview
     pagecolor="#ffffff"
     bordercolor="#666666"
     borderopacity="1"
     objecttolerance="10"
     gridtolerance="10"
     guidetolerance="10"
     inkscape:pageopacity="0"
     inkscape:pageshadow="2"
     inkscape:window-width="1857"
     inkscape:window-height="934"
     id="namedview4"
     showgrid="false"
     fit-margin-top="10"
     fit-margin-left="10"
     fit-margin-right="10"
     fit-margin-bottom="10"
     inkscape:zoom="0.50091977"
     inkscape:cx="254.48218"
     inkscape:cy="235.39478"
     inkscape:window-x="0"
     inkscape:window-y="25"
     inkscape:window-maximized="0"
     inkscape:current-layer="g10" /><g
     id="g10"
     inkscape:groupmode="layer"
     inkscape:label="ink_ext_XXXXXX"
     transform="matrix(1.3333333,0,0,-1.3333333,7.12885,481.13465)"><g
       id="g12"
       transform="scale(0.1)"><path
         d="m 678.879,2542.81 c -212.801,0 -416.09,0.03 -626.9181,0.03"
         style="fill:none;stroke:#000000;stroke-width:60;stroke-linecap:round;stroke-linejoin:round;stroke-miterlimit:10;stroke-dasharray:none;stroke-opacity:1"
         id="path14"
         inkscape:connector-curvature="0" /><path
         d="m 711.699,1594.2 c 0,611.09 5.551,1194.87 5.551,1800.29"
         style="fill:none;stroke:#000000;stroke-width:60;stroke-linecap:round;stroke-linejoin:round;stroke-miterlimit:10;stroke-dasharray:none;stroke-opacity:1"
         id="path16"
         inkscape:connector-curvature="0" /><path
         d="m 1769.25,3400.24 c -354.37,0 -692.92,0.04 -1044.012,0.04"
         style="fill:none;stroke:#000000;stroke-width:60;stroke-linecap:round;stroke-linejoin:round;stroke-miterlimit:10;stroke-dasharray:none;stroke-opacity:1"
         id="path18"
         inkscape:connector-curvature="0" /><path
         d="m 2073.31,2359.09 c -273.38,0 -534.54,0.03 -805.38,0.03"
         style="fill:#000000;fill-opacity:1;fill-rule:evenodd;stroke:none"
         id="path20"
         inkscape:connector-curvature="0" /><path
         d="m 2073.31,2359.09 c -273.38,0 -534.54,0.03 -805.38,0.03"
         style="fill:none;stroke:#000000;stroke-width:60;stroke-linecap:round;stroke-linejoin:round;stroke-miterlimit:10;stroke-dasharray:none;stroke-opacity:1"
         id="path22"
         inkscape:connector-curvature="0" /><path
         d="m 1266.26,1131.67 c 0,414.83 0.08,811.13 0.08,1222.12"
         style="fill:none;stroke:#000000;stroke-width:60;stroke-linecap:round;stroke-linejoin:round;stroke-miterlimit:10;stroke-dasharray:none;stroke-opacity:1"
         id="path24"
         inkscape:connector-curvature="0" /><path
         d="m 1267.91,1585.46 c -188.18,0 -367.949,0.02 -554.39,0.02"
         style="fill:none;stroke:#000000;stroke-width:60;stroke-linecap:round;stroke-linejoin:round;stroke-miterlimit:10;stroke-dasharray:none;stroke-opacity:1"
         id="path26"
         inkscape:connector-curvature="0" /><path
         d="m 1920.42,1097.6 c -222.7,0 -435.44,0.06 -656.07,0.06"
         style="fill:none;stroke:#000000;stroke-width:60;stroke-linecap:round;stroke-linejoin:round;stroke-miterlimit:10;stroke-dasharray:none;stroke-opacity:1"
         id="path28"
         inkscape:connector-curvature="0" /><path
         d="m 2569.21,1411.03 c -212.8,0 -416.09,0.02 -626.92,0.02"
         style="fill:none;stroke:#000000;stroke-width:60;stroke-linecap:round;stroke-linejoin:round;stroke-miterlimit:10;stroke-dasharray:none;stroke-opacity:1"
         id="path30"
         inkscape:connector-curvature="0" /><path
         d="m 2561.69,471.531 c -212.81,0 -416.1,0.02 -626.93,0.02"
         style="fill:none;stroke:#000000;stroke-width:60;stroke-linecap:round;stroke-linejoin:round;stroke-miterlimit:10;stroke-dasharray:none;stroke-opacity:1"
         id="path32"
         inkscape:connector-curvature="0" /><path
         d="m 1933.81,471.391 c 0,313.089 0.06,612.199 0.06,922.389"
         style="fill:none;stroke:#000000;stroke-width:60;stroke-linecap:round;stroke-linejoin:round;stroke-miterlimit:10;stroke-dasharray:none;stroke-opacity:1"
         id="path34"
         inkscape:connector-curvature="0" /><path
         d="m 2551.41,2839.27 c -149.67,0 -292.66,0.01 -440.94,0.01"
         style="fill:#000000;fill-opacity:1;fill-rule:evenodd;stroke:none"
         id="path36"
         inkscape:connector-curvature="0" /><path
         d="m 2551.41,2839.27 c -149.67,0 -292.66,0.01 -440.94,0.01"
         style="fill:none;stroke:#000000;stroke-width:60;stroke-linecap:round;stroke-linejoin:round;stroke-miterlimit:10;stroke-dasharray:none;stroke-opacity:1"
         id="path38"
         inkscape:connector-curvature="0" /><path
         d="m 2977.14,1899.76 c -296.74,0 -580.21,0.03 -874.19,0.03"
         style="fill:none;stroke:#000000;stroke-width:60;stroke-linecap:round;stroke-linejoin:round;stroke-miterlimit:10;stroke-dasharray:none;stroke-opacity:1"
         id="path40"
         inkscape:connector-curvature="0" /><path
         d="m 2101.99,1899.62 c 0,155.7 0.03,304.45 0.03,458.71"
         style="fill:none;stroke:#000000;stroke-width:60;stroke-linecap:round;stroke-linejoin:round;stroke-miterlimit:10;stroke-dasharray:none;stroke-opacity:1"
         id="path42"
         inkscape:connector-curvature="0" /><path
         d="m 2105.37,2372.66 c 0,156.73 -2.64,306.46 -2.64,461.74"
         style="fill:#000000;fill-opacity:1;fill-rule:evenodd;stroke:none"
         id="path44"
         inkscape:connector-curvature="0" /><path
         d="m 2105.37,2372.66 c 0,156.73 -2.64,306.46 -2.64,461.74"
         style="fill:none;stroke:#000000;stroke-width:60;stroke-linecap:round;stroke-linejoin:round;stroke-miterlimit:10;stroke-dasharray:none;stroke-opacity:1"
         id="path46"
         inkscape:connector-curvature="0" /><path
         d="m 2826.44,187.57 c -85.2,0 -166.6,-0.011 -251.01,-0.011"
         style="fill:none;stroke:#000000;stroke-width:60;stroke-linecap:round;stroke-linejoin:round;stroke-miterlimit:10;stroke-dasharray:none;stroke-opacity:1"
         id="path48"
         inkscape:connector-curvature="0" /><path
         d="m 3425.73,759.871 c -290.08,0 -567.2,-8.281 -854.59,-8.281"
         style="fill:none;stroke:#000000;stroke-width:60;stroke-linecap:round;stroke-linejoin:round;stroke-miterlimit:10;stroke-dasharray:none;stroke-opacity:1"
         id="path50"
         inkscape:connector-curvature="0" /><path
         d="m 2570.6,752.461 c 0,-188.231 0.03,-368.039 0.03,-554.52"
         style="fill:none;stroke:#000000;stroke-width:60;stroke-linecap:round;stroke-linejoin:round;stroke-miterlimit:10;stroke-dasharray:none;stroke-opacity:1"
         id="path52"
         inkscape:connector-curvature="0" /><path
         d="m 2137.15,3275.81 h -56.61 l -22.5,58.54 h -103 l -21.27,-58.54 h -55.2 l 100.37,257.7 h 55.02 z m -95.81,101.96 -35.5,95.62 -34.81,-95.62 h 70.31"
         style="fill:#000000;fill-opacity:1;fill-rule:nonzero;stroke:none"
         id="path54"
         inkscape:connector-curvature="0" /><path
         d="m 2696.19,2987.59 h 103.01 c 20.39,0 35.59,-0.85 45.61,-2.54 10.02,-1.7 18.99,-5.25 26.9,-10.64 7.91,-5.39 14.5,-12.57 19.77,-21.53 5.28,-8.97 7.91,-19.02 7.91,-30.15 0,-12.07 -3.25,-23.14 -9.75,-33.22 -6.51,-10.08 -15.33,-17.64 -26.46,-22.68 15.7,-4.57 27.78,-12.36 36.21,-23.38 8.44,-11.01 12.66,-23.96 12.66,-38.84 0,-11.72 -2.73,-23.12 -8.18,-34.19 -5.44,-11.08 -12.89,-19.93 -22.32,-26.55 -9.43,-6.62 -21.06,-10.69 -34.89,-12.21 -8.67,-0.94 -29.59,-1.53 -62.76,-1.76 h -87.71 z m 52.03,-42.89 v -59.59 h 34.1 c 20.28,0 32.87,0.3 37.8,0.88 8.9,1.06 15.9,4.13 21,9.23 5.1,5.1 7.65,11.81 7.65,20.13 0,7.97 -2.2,14.44 -6.59,19.42 -4.4,4.98 -10.93,8 -19.6,9.06 -5.16,0.58 -19.98,0.87 -44.48,0.87 z m 0,-102.48 v -68.9 h 48.16 c 18.75,0 30.65,0.52 35.69,1.58 7.73,1.41 14.03,4.83 18.89,10.28 4.87,5.45 7.3,12.75 7.3,21.89 0,7.73 -1.88,14.29 -5.63,19.68 -3.75,5.4 -9.17,9.32 -16.26,11.78 -7.08,2.46 -22.47,3.69 -46.14,3.69 h -42.01"
         style="fill:#000000;fill-opacity:1;fill-rule:nonzero;stroke:none"
         id="path56"
         inkscape:connector-curvature="0" /><path
         d="m 3251.93,1873.42 50.45,-15.99 c -7.73,-28.13 -20.59,-49.02 -38.58,-62.67 -17.99,-13.65 -40.81,-20.48 -68.47,-20.48 -34.22,0 -62.34,11.69 -84.37,35.07 -22.04,23.38 -33.05,55.34 -33.05,95.89 0,42.89 11.07,76.2 33.22,99.93 22.15,23.73 51.27,35.6 87.37,35.6 31.52,0 57.12,-9.32 76.81,-27.95 11.72,-11.02 20.51,-26.84 26.37,-47.46 l -51.51,-12.31 c -3.04,13.36 -9.4,23.91 -19.07,31.64 -9.67,7.74 -21.41,11.6 -35.24,11.6 -19.1,0 -34.6,-6.85 -46.5,-20.56 -11.89,-13.71 -17.84,-35.92 -17.84,-66.62 0,-32.58 5.86,-55.79 17.58,-69.61 11.72,-13.83 26.95,-20.75 45.7,-20.75 13.83,0 25.73,4.4 35.69,13.19 9.96,8.79 17.11,22.61 21.44,41.48"
         style="fill:#000000;fill-opacity:1;fill-rule:nonzero;stroke:none"
         id="path58"
         inkscape:connector-curvature="0" /><path
         d="m 2646.19,1556.92 h 95.1 c 21.45,0 37.79,-1.64 49.04,-4.92 15.12,-4.45 28.07,-12.36 38.85,-23.73 10.78,-11.37 18.99,-25.28 24.61,-41.75 5.63,-16.46 8.44,-36.76 8.44,-60.91 0,-21.21 -2.64,-39.49 -7.91,-54.84 -6.45,-18.75 -15.65,-33.92 -27.6,-45.53 -9.02,-8.79 -21.21,-15.64 -36.56,-20.56 -11.49,-3.64 -26.84,-5.45 -46.06,-5.45 h -97.91 z m 52.04,-43.59 v -170.68 h 38.84 c 14.53,0 25.02,0.82 31.47,2.46 8.44,2.11 15.44,5.68 21,10.72 5.57,5.04 10.11,13.33 13.63,24.87 3.51,11.55 5.27,27.28 5.27,47.2 0,19.92 -1.76,35.21 -5.27,45.88 -3.52,10.66 -8.44,18.98 -14.77,24.96 -6.33,5.98 -14.35,10.02 -24.08,12.13 -7.27,1.64 -21.5,2.46 -42.72,2.46 h -23.37"
         style="fill:#000000;fill-opacity:1;fill-rule:nonzero;stroke:none"
         id="path60"
         inkscape:connector-curvature="0" /><path
         d="m 3496.41,634.07 v 257.7 h 191.08 v -43.598 h -139.05 v -57.133 h 129.38 v -43.41 h -129.38 v -70.141 h 143.97 V 634.07 h -196"
         style="fill:#000000;fill-opacity:1;fill-rule:nonzero;stroke:none"
         id="path62"
         inkscape:connector-curvature="0" /><path
         d="M 2928.68,76.2891 V 333.98 h 176.66 v -43.589 h -124.63 v -61 h 107.58 v -43.59 H 2980.71 V 76.2891 h -52.03"
         style="fill:#000000;fill-opacity:1;fill-rule:nonzero;stroke:none"
         id="path64"
         inkscape:connector-curvature="0" /></g></g></svg>