<?xml version="1.0" encoding="UTF-8" standalone="no"?>
<!-- Created with Inkscape (http://www.inkscape.org/) -->

<svg
   xmlns:dc="http://purl.org/dc/elements/1.1/"
   xmlns:cc="http://creativecommons.org/ns#"
   xmlns:rdf="http://www.w3.org/1999/02/22-rdf-syntax-ns#"
   xmlns:svg="http://www.w3.org/2000/svg"
   xmlns="http://www.w3.org/2000/svg"
   xmlns:sodipodi="http://sodipodi.sourceforge.net/DTD/sodipodi-0.dtd"
   xmlns:inkscape="http://www.inkscape.org/namespaces/inkscape"
   version="1.1"
   id="svg2"
   xml:space="preserve"
   width="470.48648"
   height="245.17844"
   viewBox="0 0 470.48649 245.17844"
   sodipodi:docname="nieukorzenione.svg"
   inkscape:export-filename="/home/grzeg/Dokumenty/filogenetyka/wyklady/pics-drzewa/nieukorzenione.png"
   inkscape:export-xdpi="61.082043"
   inkscape:export-ydpi="61.082043"
   inkscape:version="0.92.2 (5c3e80d, 2017-08-06)"><metadata
     id="metadata8"><rdf:RDF><cc:Work
         rdf:about=""><dc:format>image/svg+xml</dc:format><dc:type
           rdf:resource="http://purl.org/dc/dcmitype/StillImage" /><dc:title></dc:title></cc:Work></rdf:RDF></metadata><defs
     id="defs6" /><sodipodi:namedview
     pagecolor="#ffffff"
     bordercolor="#666666"
     borderopacity="1"
     objecttolerance="10"
     gridtolerance="10"
     guidetolerance="10"
     inkscape:pageopacity="0"
     inkscape:pageshadow="2"
     inkscape:window-width="1789"
     inkscape:window-height="942"
     id="namedview4"
     showgrid="false"
     fit-margin-top="10"
     fit-margin-right="10"
     fit-margin-left="10"
     fit-margin-bottom="10"
     inkscape:zoom="0.85219767"
     inkscape:cx="235.28916"
     inkscape:cy="118.85844"
     inkscape:window-x="0"
     inkscape:window-y="25"
     inkscape:window-maximized="0"
     inkscape:current-layer="g10" /><g
     id="g10"
     inkscape:groupmode="layer"
     inkscape:label="ink_ext_XXXXXX"
     transform="matrix(1.3333333,0,0,-1.3333333,8.22916,242.64666)"><g
       id="g12"
       transform="scale(0.1)"><path
         d="M 639.352,1533.94 C 891.07,1388.61 1131.56,1249.8 1380.95,1105.82"
         style="fill:none;stroke:#000000;stroke-width:60;stroke-linecap:round;stroke-linejoin:round;stroke-miterlimit:10;stroke-dasharray:none;stroke-opacity:1"
         id="path14"
         inkscape:connector-curvature="0" /><path
         d="M 813.512,775.93 C 1007.7,888.039 1193.2,995.172 1385.58,1106.24"
         style="fill:#000000;fill-opacity:1;fill-rule:evenodd;stroke:none"
         id="path16"
         inkscape:connector-curvature="0" /><path
         d="M 813.512,775.93 C 1007.7,888.039 1193.2,995.172 1385.58,1106.24"
         style="fill:none;stroke:#000000;stroke-width:60;stroke-linecap:round;stroke-linejoin:round;stroke-miterlimit:10;stroke-dasharray:none;stroke-opacity:1"
         id="path18"
         inkscape:connector-curvature="0" /><path
         d="m 2292.2,1112.16 c -304,0 -594.42,0.04 -895.59,0.04"
         style="fill:none;stroke:#000000;stroke-width:60;stroke-linecap:round;stroke-linejoin:round;stroke-miterlimit:10;stroke-dasharray:none;stroke-opacity:1"
         id="path20"
         inkscape:connector-curvature="0" /><path
         d="M 2644.58,1460.79 C 2527.36,1343.57 2415.36,1231.6 2299.23,1115.46"
         style="fill:none;stroke:#000000;stroke-width:60;stroke-linecap:round;stroke-linejoin:round;stroke-miterlimit:10;stroke-dasharray:none;stroke-opacity:1"
         id="path22"
         inkscape:connector-curvature="0" /><path
         d="M 2666.21,754.641 C 2546.4,869.211 2431.95,978.68 2313.25,1092.19"
         style="fill:none;stroke:#000000;stroke-width:60;stroke-linecap:round;stroke-linejoin:round;stroke-miterlimit:10;stroke-dasharray:none;stroke-opacity:1"
         id="path24"
         inkscape:connector-curvature="0" /><path
         d="M 531.5,1036.92 C 618.301,950.121 701.238,867.199 787.238,781.199"
         style="fill:#000000;fill-opacity:1;fill-rule:evenodd;stroke:none"
         id="path26"
         inkscape:connector-curvature="0" /><path
         d="M 531.5,1036.92 C 618.301,950.121 701.238,867.199 787.238,781.199"
         style="fill:none;stroke:#000000;stroke-width:60;stroke-linecap:round;stroke-linejoin:round;stroke-miterlimit:10;stroke-dasharray:none;stroke-opacity:1"
         id="path28"
         inkscape:connector-curvature="0" /><path
         d="M 285.781,263.422 C 457.879,435.52 622.27,599.949 792.77,770.449"
         style="fill:none;stroke:#000000;stroke-width:60;stroke-linecap:round;stroke-linejoin:round;stroke-miterlimit:10;stroke-dasharray:none;stroke-opacity:1"
         id="path30"
         inkscape:connector-curvature="0" /><path
         d="m 2830.67,613.422 c -50.64,42.898 -99.03,83.879 -149.2,126.387"
         style="fill:none;stroke:#000000;stroke-width:60;stroke-linecap:round;stroke-linejoin:round;stroke-miterlimit:10;stroke-dasharray:none;stroke-opacity:1"
         id="path32"
         inkscape:connector-curvature="0" /><path
         d="M 3150.43,1228.29 C 2990.64,1068.5 2842.55,911.289 2684.24,752.98"
         style="fill:none;stroke:#000000;stroke-width:60;stroke-linecap:round;stroke-linejoin:round;stroke-miterlimit:10;stroke-dasharray:none;stroke-opacity:1"
         id="path34"
         inkscape:connector-curvature="0" /><path
         d="m 602.23,1544.1 h -44.101 l -17.527,45.6 h -80.243 l -16.57,-45.6 h -43 l 78.191,200.75 h 42.86 z m -74.64,79.42 -27.66,74.49 -27.11,-74.49 h 54.77"
         style="fill:#000000;fill-opacity:1;fill-rule:nonzero;stroke:none"
         id="path36"
         inkscape:connector-curvature="0" /><path
         d="m 273.25,1192.67 h 80.25 c 15.879,0 27.73,-0.66 35.531,-1.98 7.809,-1.33 14.789,-4.09 20.957,-8.29 6.16,-4.2 11.293,-9.79 15.403,-16.77 4.109,-6.99 6.16,-14.82 6.16,-23.49 0,-9.4 -2.531,-18.03 -7.602,-25.88 -5.058,-7.85 -11.929,-13.74 -20.609,-17.66 12.238,-3.56 21.64,-9.64 28.211,-18.22 6.578,-8.58 9.859,-18.67 9.859,-30.26 0,-9.13 -2.121,-18.01 -6.371,-26.63 -4.238,-8.63 -10.039,-15.52 -17.391,-20.68 -7.347,-5.162 -16.41,-8.33 -27.179,-9.521 -6.75,-0.73 -23.047,-1.187 -48.879,-1.367 h -68.34 z m 40.539,-33.41 v -46.42 h 26.563 c 15.796,0 25.609,0.23 29.437,0.68 6.941,0.82 12.402,3.22 16.371,7.19 3.969,3.97 5.949,9.2 5.949,15.68 0,6.21 -1.711,11.25 -5.129,15.13 -3.421,3.88 -8.511,6.23 -15.269,7.05 -4.02,0.46 -15.563,0.69 -34.641,0.69 z m 0,-79.83 v -53.68 h 37.52 c 14.601,0 23.871,0.41 27.8,1.23 6.02,1.09 10.93,3.76 14.719,8.01 3.793,4.24 5.684,9.93 5.684,17.05 0,6.02 -1.461,11.14 -4.383,15.33 -2.918,4.2 -7.149,7.26 -12.668,9.18 -5.52,1.92 -17.5,2.88 -35.949,2.88 h -32.723"
         style="fill:#000000;fill-opacity:1;fill-rule:nonzero;stroke:none"
         id="path38"
         inkscape:connector-curvature="0" /><path
         d="m 148.852,133.238 39.296,-12.457 C 182.129,98.8711 172.109,82.6016 158.09,71.9609 144.078,61.3203 126.301,56.0117 104.762,56.0117 c -26.6604,0 -48.5706,9.0977 -65.7307,27.3164 -17.1719,18.2109 -25.75,43.1129 -25.75,74.7029 0,33.41 8.6289,59.36 25.8789,77.84 17.2617,18.488 39.9414,27.731 68.0588,27.731 24.562,0 44.511,-7.25 59.84,-21.774 9.132,-8.578 15.98,-20.906 20.543,-36.969 L 147.48,195.27 c -2.371,10.41 -7.332,18.628 -14.859,24.652 -7.531,6.027 -16.68,9.039 -27.449,9.039 -14.8829,0 -26.9611,-5.34 -36.2228,-16.02 -9.2695,-10.679 -13.8984,-27.98 -13.8984,-51.902 0,-25.379 4.5586,-43.461 13.6875,-54.23 9.1328,-10.7699 21,-16.1606 35.6137,-16.1606 10.769,0 20.027,3.4297 27.789,10.2736 7.757,6.848 13.328,17.617 16.711,32.316"
         style="fill:#000000;fill-opacity:1;fill-rule:nonzero;stroke:none"
         id="path40"
         inkscape:connector-curvature="0" /><path
         d="m 2689.9,1718.86 h 74.08 c 16.71,0 29.44,-1.28 38.21,-3.83 11.77,-3.47 21.86,-9.63 30.26,-18.49 8.4,-8.86 14.79,-19.7 19.17,-32.52 4.38,-12.83 6.57,-28.65 6.57,-47.45 0,-16.52 -2.05,-30.77 -6.16,-42.73 -5.02,-14.6 -12.19,-26.42 -21.5,-35.46 -7.03,-6.85 -16.52,-12.19 -28.48,-16.02 -8.95,-2.83 -20.91,-4.25 -35.88,-4.25 h -76.27 z m 40.53,-33.96 v -132.97 h 30.26 c 11.32,0 19.49,0.64 24.52,1.92 6.57,1.65 12.02,4.43 16.36,8.35 4.34,3.93 7.87,10.39 10.61,19.38 2.74,8.99 4.11,21.25 4.11,36.77 0,15.52 -1.37,27.43 -4.11,35.74 -2.74,8.31 -6.57,14.79 -11.5,19.44 -4.93,4.66 -11.18,7.81 -18.76,9.45 -5.66,1.28 -16.75,1.92 -33.28,1.92 h -18.21"
         style="fill:#000000;fill-opacity:1;fill-rule:nonzero;stroke:none"
         id="path42"
         inkscape:connector-curvature="0" /><path
         d="m 3239.24,1244.17 v 200.75 h 148.85 v -33.96 h -108.31 v -44.5 h 100.78 v -33.82 H 3279.78 V 1278 h 112.15 v -33.83 h -152.69"
         style="fill:#000000;fill-opacity:1;fill-rule:nonzero;stroke:none"
         id="path44"
         inkscape:connector-curvature="0" /><path
         d="m 2891.44,354 v 200.75 h 137.62 v -33.961 h -97.09 V 473.27 h 83.81 v -33.961 h -83.81 V 354 h -40.53"
         style="fill:#000000;fill-opacity:1;fill-rule:nonzero;stroke:none"
         id="path46"
         inkscape:connector-curvature="0" /></g></g></svg>