<?xml version="1.0" encoding="UTF-8" standalone="no"?>
<!-- Created with Inkscape (http://www.inkscape.org/) -->

<svg
   xmlns:dc="http://purl.org/dc/elements/1.1/"
   xmlns:cc="http://creativecommons.org/ns#"
   xmlns:rdf="http://www.w3.org/1999/02/22-rdf-syntax-ns#"
   xmlns:svg="http://www.w3.org/2000/svg"
   xmlns="http://www.w3.org/2000/svg"
   xmlns:sodipodi="http://sodipodi.sourceforge.net/DTD/sodipodi-0.dtd"
   xmlns:inkscape="http://www.inkscape.org/namespaces/inkscape"
   version="1.1"
   id="svg2"
   xml:space="preserve"
   width="760.18085"
   height="520.95068"
   viewBox="0 0 760.18084 520.95069"
   sodipodi:docname="outgrupa.svg"
   inkscape:version="0.92.2 (5c3e80d, 2017-08-06)"
   inkscape:export-filename="/home/grzeg/Dokumenty/filogenetyka/wyklady/pics-drzewa/outgrupa.png"
   inkscape:export-xdpi="37.961369"
   inkscape:export-ydpi="37.961369"><metadata
     id="metadata8"><rdf:RDF><cc:Work
         rdf:about=""><dc:format>image/svg+xml</dc:format><dc:type
           rdf:resource="http://purl.org/dc/dcmitype/StillImage" /><dc:title></dc:title></cc:Work></rdf:RDF></metadata><defs
     id="defs6" /><sodipodi:namedview
     pagecolor="#ffffff"
     bordercolor="#666666"
     borderopacity="1"
     objecttolerance="10"
     gridtolerance="10"
     guidetolerance="10"
     inkscape:pageopacity="0"
     inkscape:pageshadow="2"
     inkscape:window-width="2044"
     inkscape:window-height="995"
     id="namedview4"
     showgrid="false"
     fit-margin-top="10"
     fit-margin-right="10"
     fit-margin-bottom="10"
     fit-margin-left="10"
     inkscape:zoom="0.47110805"
     inkscape:cx="378.65552"
     inkscape:cy="260.47334"
     inkscape:window-x="0"
     inkscape:window-y="25"
     inkscape:window-maximized="0"
     inkscape:current-layer="g10" /><g
     id="g10"
     inkscape:groupmode="layer"
     inkscape:label="ink_ext_XXXXXX"
     transform="matrix(1.3333333,0,0,-1.3333333,7.12885,510.95065)"><g
       id="g12"
       transform="scale(0.1)"><path
         d="M 3729.46,412.629 C 3464.48,339.809 3211.34,270.281 2948.82,198.121"
         style="fill:#ff7e00;fill-opacity:1;fill-rule:evenodd;stroke:none"
         id="path14"
         inkscape:connector-curvature="0" /><path
         d="M 3729.46,412.629 C 3464.48,339.809 3211.34,270.281 2948.82,198.121"
         style="fill:none;stroke:#ff7e00;stroke-width:33.75;stroke-linecap:round;stroke-linejoin:round;stroke-miterlimit:10;stroke-dasharray:none;stroke-opacity:1"
         id="path16"
         inkscape:connector-curvature="0" /><path
         d="m 2790.74,159.59 126.96,114.058 40.45,-147.187 -167.41,33.129"
         style="fill:#ff7e00;fill-opacity:1;fill-rule:evenodd;stroke:none"
         id="path18"
         inkscape:connector-curvature="0" /><path
         d="m 2790.74,159.59 126.96,114.058 40.45,-147.187 z"
         style="fill:none;stroke:#ff7e00;stroke-width:33.75;stroke-linecap:round;stroke-linejoin:round;stroke-miterlimit:10;stroke-dasharray:none;stroke-opacity:1"
         id="path20"
         inkscape:connector-curvature="0" /><path
         d="m 678.891,1920.35 c -212.813,0 -416.102,0.03 -626.9301,0.03"
         style="fill:none;stroke:#000000;stroke-width:60;stroke-linecap:round;stroke-linejoin:round;stroke-miterlimit:10;stroke-dasharray:none;stroke-opacity:1"
         id="path22"
         inkscape:connector-curvature="0" /><path
         d="m 1693.61,3146.24 c -212.8,0 -416.1,0.03 -626.92,0.03"
         style="fill:none;stroke:#000000;stroke-width:60;stroke-linecap:round;stroke-linejoin:round;stroke-miterlimit:10;stroke-dasharray:none;stroke-opacity:1"
         id="path24"
         inkscape:connector-curvature="0" /><path
         d="m 1070.23,2502.62 c -119.289,0 -233.25,0.03 -351.429,0.03"
         style="fill:none;stroke:#000000;stroke-width:60;stroke-linecap:round;stroke-linejoin:round;stroke-miterlimit:10;stroke-dasharray:none;stroke-opacity:1"
         id="path26"
         inkscape:connector-curvature="0" /><path
         d="m 1064.12,1323.11 c 0,611.07 5.55,1194.86 5.55,1800.27"
         style="fill:none;stroke:#000000;stroke-width:60;stroke-linecap:round;stroke-linejoin:round;stroke-miterlimit:10;stroke-dasharray:none;stroke-opacity:1"
         id="path28"
         inkscape:connector-curvature="0" /><path
         d="m 716.23,132.922 c 0,796.609 7.301,1557.628 7.301,2346.848"
         style="fill:none;stroke:#000000;stroke-width:60;stroke-linecap:round;stroke-linejoin:round;stroke-miterlimit:10;stroke-dasharray:none;stroke-opacity:1"
         id="path30"
         inkscape:connector-curvature="0" /><path
         d="m 2791.35,3623.86 c -354.37,0 -692.92,0.04 -1044.01,0.04"
         style="fill:none;stroke:#000000;stroke-width:60;stroke-linecap:round;stroke-linejoin:round;stroke-miterlimit:10;stroke-dasharray:none;stroke-opacity:1"
         id="path32"
         inkscape:connector-curvature="0" /><path
         d="m 2545.19,2684.36 c -273.37,0 -534.54,0.03 -805.38,0.03"
         style="fill:#000000;fill-opacity:1;fill-rule:evenodd;stroke:none"
         id="path34"
         inkscape:connector-curvature="0" /><path
         d="m 2545.19,2684.36 c -273.37,0 -534.54,0.03 -805.38,0.03"
         style="fill:none;stroke:#000000;stroke-width:60;stroke-linecap:round;stroke-linejoin:round;stroke-miterlimit:10;stroke-dasharray:none;stroke-opacity:1"
         id="path36"
         inkscape:connector-curvature="0" /><path
         d="m 1738.85,2684.24 c 0,313.09 0.06,612.19 0.06,922.38"
         style="fill:none;stroke:#000000;stroke-width:60;stroke-linecap:round;stroke-linejoin:round;stroke-miterlimit:10;stroke-dasharray:none;stroke-opacity:1"
         id="path38"
         inkscape:connector-curvature="0" /><path
         d="m 2215.59,1314.35 c -390.23,0 -763.03,0.06 -1149.64,0.06"
         style="fill:none;stroke:#000000;stroke-width:60;stroke-linecap:round;stroke-linejoin:round;stroke-miterlimit:10;stroke-dasharray:none;stroke-opacity:1"
         id="path40"
         inkscape:connector-curvature="0" /><path
         d="m 2303.11,121.051 c -533.32,0 -1042.8,0.078 -1571.161,0.078"
         style="fill:none;stroke:#000000;stroke-width:60;stroke-linecap:round;stroke-linejoin:round;stroke-miterlimit:10;stroke-dasharray:none;stroke-opacity:1"
         id="path42"
         inkscape:connector-curvature="0" /><path
         d="m 2896.23,1792.02 c -212.8,0 -416.09,0.02 -626.92,0.02"
         style="fill:none;stroke:#000000;stroke-width:60;stroke-linecap:round;stroke-linejoin:round;stroke-miterlimit:10;stroke-dasharray:none;stroke-opacity:1"
         id="path44"
         inkscape:connector-curvature="0" /><path
         d="m 2888.71,852.52 c -212.8,0 -416.09,0.019 -626.93,0.019"
         style="fill:none;stroke:#000000;stroke-width:60;stroke-linecap:round;stroke-linejoin:round;stroke-miterlimit:10;stroke-dasharray:none;stroke-opacity:1"
         id="path46"
         inkscape:connector-curvature="0" /><path
         d="m 2260.83,852.379 c 0,313.091 0.06,612.201 0.06,922.391"
         style="fill:none;stroke:#000000;stroke-width:60;stroke-linecap:round;stroke-linejoin:round;stroke-miterlimit:10;stroke-dasharray:none;stroke-opacity:1"
         id="path48"
         inkscape:connector-curvature="0" /><path
         d="m 3023.29,3164.54 c -149.67,0 -292.65,0.02 -440.93,0.02"
         style="fill:#000000;fill-opacity:1;fill-rule:evenodd;stroke:none"
         id="path50"
         inkscape:connector-curvature="0" /><path
         d="m 3023.29,3164.54 c -149.67,0 -292.65,0.02 -440.93,0.02"
         style="fill:none;stroke:#000000;stroke-width:60;stroke-linecap:round;stroke-linejoin:round;stroke-miterlimit:10;stroke-dasharray:none;stroke-opacity:1"
         id="path52"
         inkscape:connector-curvature="0" /><path
         d="m 3449.02,2225.03 c -296.73,0 -580.21,0.03 -874.19,0.03"
         style="fill:none;stroke:#000000;stroke-width:60;stroke-linecap:round;stroke-linejoin:round;stroke-miterlimit:10;stroke-dasharray:none;stroke-opacity:1"
         id="path54"
         inkscape:connector-curvature="0" /><path
         d="m 2573.87,2224.89 c 0,155.71 0.03,304.46 0.03,458.72"
         style="fill:none;stroke:#000000;stroke-width:60;stroke-linecap:round;stroke-linejoin:round;stroke-miterlimit:10;stroke-dasharray:none;stroke-opacity:1"
         id="path56"
         inkscape:connector-curvature="0" /><path
         d="m 2577.25,2697.93 c 0,156.74 -2.64,306.47 -2.64,461.74"
         style="fill:#000000;fill-opacity:1;fill-rule:evenodd;stroke:none"
         id="path58"
         inkscape:connector-curvature="0" /><path
         d="m 2577.25,2697.93 c 0,156.74 -2.64,306.47 -2.64,461.74"
         style="fill:none;stroke:#000000;stroke-width:60;stroke-linecap:round;stroke-linejoin:round;stroke-miterlimit:10;stroke-dasharray:none;stroke-opacity:1"
         id="path60"
         inkscape:connector-curvature="0" /><path
         d="m 3153.47,568.551 c -85.21,0 -166.61,0 -251.02,0"
         style="fill:none;stroke:#000000;stroke-width:60;stroke-linecap:round;stroke-linejoin:round;stroke-miterlimit:10;stroke-dasharray:none;stroke-opacity:1"
         id="path62"
         inkscape:connector-curvature="0" /><path
         d="m 3752.75,1140.86 c -290.08,0 -567.2,-8.28 -854.58,-8.28"
         style="fill:none;stroke:#000000;stroke-width:60;stroke-linecap:round;stroke-linejoin:round;stroke-miterlimit:10;stroke-dasharray:none;stroke-opacity:1"
         id="path64"
         inkscape:connector-curvature="0" /><path
         d="m 2897.62,1133.44 c 0,-188.221 0.04,-368.03 0.04,-554.51"
         style="fill:none;stroke:#000000;stroke-width:60;stroke-linecap:round;stroke-linejoin:round;stroke-miterlimit:10;stroke-dasharray:none;stroke-opacity:1"
         id="path66"
         inkscape:connector-curvature="0" /><path
         d="m 3159.24,3499.43 h -56.6 l -22.5,58.54 h -103.01 l -21.27,-58.54 h -55.19 l 100.37,257.7 h 55.02 z m -95.8,101.96 -35.51,95.62 -34.8,-95.62 h 70.31"
         style="fill:#000000;fill-opacity:1;fill-rule:nonzero;stroke:none"
         id="path68"
         inkscape:connector-curvature="0" /><path
         d="m 3168.07,3312.85 h 103.01 c 20.39,0 35.6,-0.84 45.62,-2.54 10.02,-1.69 18.98,-5.25 26.89,-10.64 7.91,-5.38 14.5,-12.56 19.78,-21.52 5.27,-8.97 7.9,-19.02 7.9,-30.15 0,-12.07 -3.24,-23.14 -9.75,-33.22 -6.51,-10.08 -15.33,-17.63 -26.46,-22.67 15.71,-4.58 27.78,-12.37 36.21,-23.38 8.44,-11.02 12.66,-23.97 12.66,-38.85 0,-11.72 -2.73,-23.12 -8.17,-34.19 -5.45,-11.07 -12.89,-19.92 -22.33,-26.55 -9.43,-6.62 -21.06,-10.69 -34.89,-12.21 -8.67,-0.94 -29.59,-1.53 -62.75,-1.76 h -87.72 z m 52.03,-42.87 v -59.6 h 34.11 c 20.27,0 32.87,0.3 37.79,0.88 8.9,1.06 15.91,4.13 21.01,9.23 5.09,5.1 7.64,11.81 7.64,20.13 0,7.97 -2.2,14.44 -6.59,19.42 -4.4,4.98 -10.93,8 -19.6,9.05 -5.15,0.59 -19.98,0.89 -44.48,0.89 z m 0,-102.49 v -68.9 h 48.17 c 18.75,0 30.64,0.52 35.68,1.58 7.74,1.4 14.04,4.83 18.9,10.28 4.86,5.46 7.29,12.75 7.29,21.89 0,7.73 -1.87,14.29 -5.62,19.69 -3.75,5.39 -9.17,9.31 -16.26,11.77 -7.09,2.46 -22.47,3.69 -46.14,3.69 h -42.02"
         style="fill:#000000;fill-opacity:1;fill-rule:nonzero;stroke:none"
         id="path70"
         inkscape:connector-curvature="0" /><path
         d="m 3723.82,2198.69 50.44,-15.99 c -7.73,-28.13 -20.59,-49.02 -38.58,-62.67 -17.99,-13.65 -40.81,-20.48 -68.46,-20.48 -34.23,0 -62.35,11.69 -84.39,35.07 -22.02,23.38 -33.04,55.34 -33.04,95.89 0,42.89 11.07,76.2 33.22,99.93 22.15,23.73 51.27,35.59 87.37,35.59 31.52,0 57.13,-9.31 76.82,-27.94 11.71,-11.02 20.5,-26.84 26.36,-47.46 l -51.5,-12.31 c -3.05,13.36 -9.41,23.91 -19.08,31.64 -9.66,7.74 -21.41,11.6 -35.24,11.6 -19.1,0 -34.6,-6.85 -46.49,-20.56 -11.9,-13.72 -17.84,-35.92 -17.84,-66.62 0,-32.58 5.85,-55.79 17.58,-69.61 11.71,-13.83 26.94,-20.74 45.69,-20.74 13.83,0 25.73,4.39 35.69,13.18 9.96,8.79 17.11,22.61 21.45,41.48"
         style="fill:#000000;fill-opacity:1;fill-rule:nonzero;stroke:none"
         id="path72"
         inkscape:connector-curvature="0" /><path
         d="m 3006.83,1939.64 h 95.1 c 21.45,0 37.8,-1.64 49.05,-4.92 15.11,-4.45 28.06,-12.36 38.85,-23.73 10.77,-11.37 18.98,-25.28 24.6,-41.75 5.63,-16.46 8.44,-36.76 8.44,-60.91 0,-21.21 -2.64,-39.48 -7.91,-54.84 -6.44,-18.75 -15.65,-33.93 -27.6,-45.53 -9.02,-8.78 -21.21,-15.64 -36.56,-20.56 -11.49,-3.63 -26.84,-5.45 -46.05,-5.45 h -97.92 z m 52.04,-43.59 v -170.68 h 38.84 c 14.54,0 25.02,0.81 31.47,2.46 8.44,2.1 15.44,5.68 21,10.72 5.57,5.04 10.11,13.33 13.63,24.87 3.52,11.55 5.27,27.28 5.27,47.2 0,19.92 -1.75,35.21 -5.27,45.88 -3.52,10.66 -8.44,18.98 -14.77,24.96 -6.33,5.97 -14.35,10.02 -24.08,12.13 -7.27,1.64 -21.5,2.46 -42.71,2.46 h -23.38"
         style="fill:#000000;fill-opacity:1;fill-rule:nonzero;stroke:none"
         id="path74"
         inkscape:connector-curvature="0" /><path
         d="m 3823.43,1015.06 v 257.69 h 191.08 v -43.59 h -139.04 v -57.13 h 129.37 v -43.41 h -129.37 v -70.14 h 143.96 v -43.42 h -196"
         style="fill:#000000;fill-opacity:1;fill-rule:nonzero;stroke:none"
         id="path76"
         inkscape:connector-curvature="0" /><path
         d="M 3255.71,457.281 V 714.98 h 176.66 v -43.601 h -124.63 v -61 h 107.57 v -43.59 H 3307.74 V 457.281 h -52.03"
         style="fill:#000000;fill-opacity:1;fill-rule:nonzero;stroke:none"
         id="path78"
         inkscape:connector-curvature="0" /><path
         d="m 2481.3,99.1406 v 43.4184 h 112.16 V 39.8984 C 2582.55,29.3594 2566.76,20.0703 2546.08,12.0391 2525.39,4.01172 2504.45,0 2483.24,0 c -26.96,0 -50.45,5.64844 -70.49,16.9688 -20.04,11.3007 -35.1,27.4804 -45.18,48.5117 -10.07,21.0312 -15.11,43.9105 -15.11,68.6405 0,26.84 5.62,50.688 16.87,71.539 11.25,20.86 27.72,36.86 49.4,47.988 16.52,8.563 37.09,12.832 61.69,12.832 32,0 56.99,-6.699 74.97,-20.121 18,-13.429 29.57,-31.968 34.72,-55.629 l -51.67,-9.671 c -3.64,12.652 -10.47,22.64 -20.49,29.972 -10.02,7.321 -22.53,10.981 -37.53,10.981 -22.73,0 -40.8,-7.203 -54.22,-21.621 -13.42,-14.411 -20.13,-35.801 -20.13,-64.161 0,-30.589 6.79,-53.5308 20.39,-68.8198 13.59,-15.2891 31.4,-22.9297 53.44,-22.9297 10.9,0 21.82,2.1289 32.78,6.4101 10.96,4.2696 20.36,9.461 28.22,15.5508 v 32.6992 h -59.6"
         style="fill:#000000;fill-opacity:1;fill-rule:nonzero;stroke:none"
         id="path80"
         inkscape:connector-curvature="0" /><path
         d="m 2658.32,143.609 -26.55,20.571 c 8.44,9.492 17.23,18.57 26.37,27.242 3.63,3.519 5.92,5.75 6.86,6.687 -2.93,0.461 -11.31,2.403 -25.14,5.789 -9.96,2.473 -16.52,4.293 -19.69,5.461 l 10.37,30.93 c 15.36,-6.211 29.07,-13.059 41.13,-20.559 -2.81,19.098 -4.21,34.692 -4.21,46.75 h 31.29 c 0,-8.55 -1.58,-24.25 -4.75,-47.101 2.34,0.93 7.38,3.223 15.11,6.851 10.56,4.809 20.28,8.899 29.19,12.309 l 9.31,-31.82 c -13,-2.93 -28.06,-5.797 -45.17,-8.61 l 21.09,-23.73 c 4.22,-4.809 7.56,-8.738 10.02,-11.777 l -26.9,-17.762 -23.73,39.199 c -7.14,-12.66 -15.35,-26.129 -24.6,-40.43"
         style="fill:#000000;fill-opacity:1;fill-rule:nonzero;stroke:none"
         id="path82"
         inkscape:connector-curvature="0" /><path
         d="m 3921.17,555.93 c -0.23,1.351 -1.35,2.922 -3.38,4.281 -2.02,1.117 -3.82,1.789 -5.4,1.789 h -3.82 l -1.58,-0.441 c -0.67,-0.231 -1.35,-0.45 -1.8,-0.68 -1.8,-1.348 -3.15,-4.5 -4.5,-9 -4.5,4.723 -9,7.883 -13.5,9.23 -4.95,1.121 -9.67,1.801 -14.4,1.801 -5.85,0 -11.47,-2.031 -16.65,-5.629 -5.17,-3.832 -9.67,-8.769 -13.5,-15.082 -3.82,-6.289 -6.75,-13.5 -9,-21.59 -2.25,-8.328 -3.15,-16.879 -3.15,-25.879 0,-4.949 0.68,-9.671 2.03,-14.179 1.35,-4.723 3.37,-8.77 6.52,-12.141 2.7,-3.601 6.53,-6.531 11.03,-8.551 4.5,-2.031 9.9,-3.148 16.2,-3.148 6.3,0 12.37,1.34 18,3.598 5.4,2.25 10.57,6.519 15.3,12.82 v -20.93 c 0,-9.219 -2.48,-16.418 -6.98,-21.59 -4.95,-5.179 -11.7,-7.89 -20.7,-7.89 -4.27,0 -8.55,0.91 -13.05,2.261 -4.5,1.579 -8.55,3.149 -12.15,4.95 -1.57,0.898 -2.92,1.351 -4.27,1.8 -1.35,0.45 -2.93,0.668 -4.28,0.668 -2.02,0 -3.6,-0.668 -4.72,-2.25 -1.35,-1.339 -1.8,-3.589 -1.8,-6.296 0,-2.25 0.9,-4.051 2.92,-5.622 1.8,-1.351 3.83,-2.699 6.08,-3.609 2.25,-0.891 4.95,-1.57 8.1,-2.461 3.15,-0.691 6.3,-1.359 9.67,-1.808 3.15,-0.454 6.53,-0.672 9.68,-0.891 3.15,-0.231 5.62,-0.461 7.87,-0.461 13.05,0 23.18,3.379 29.93,10.129 6.75,6.75 10.12,16.199 10.12,28.351 v 7.872 c 0,4.277 0.23,9.007 0.45,14.859 l 0.45,18.437 0.45,18.012 c 0,5.621 0.23,10.34 0.45,14.399 v 6.75 c 0,4.5 0.23,8.992 1.13,13.953 0.67,4.949 1.35,9.668 2.25,14.168 z m -21.38,-39.602 c 0,-5.848 -0.9,-11.699 -2.25,-17.316 -1.57,-5.633 -3.6,-10.582 -6.3,-14.852 -2.7,-4.5 -5.85,-8.101 -9.45,-10.801 -3.82,-2.699 -7.87,-4.058 -12.15,-4.058 -3.6,0 -6.52,0.679 -9,2.027 -2.47,1.352 -4.5,3.152 -5.85,5.402 -1.8,2.25 -2.92,4.731 -3.6,7.879 -0.9,2.922 -1.12,6.071 -1.12,9.45 0,8.543 0.67,15.972 2.47,22.5 1.58,6.519 3.83,12.14 6.53,16.652 2.7,4.269 5.62,7.648 9.22,9.898 3.15,2.243 6.53,3.371 10.13,3.371 6.52,0 11.7,-2.921 15.52,-8.32 3.83,-5.629 5.85,-12.832 5.85,-21.832"
         style="fill:#000000;fill-opacity:1;fill-rule:nonzero;stroke:none"
         id="path84"
         inkscape:connector-curvature="0" /><path
         d="m 4028.27,556.148 c 0,1.364 -0.68,2.704 -1.58,4.063 -1.12,0.898 -2.47,1.789 -4.05,2.699 -1.8,0.899 -3.37,1.57 -5.17,2.02 -2.03,0.449 -3.83,0.679 -5.18,0.679 -3.6,0 -7.2,-0.91 -11.02,-2.699 -4.05,-1.801 -7.88,-4.058 -11.7,-7.199 -4.05,-3.383 -7.88,-7.43 -11.48,-12.152 -3.82,-4.95 -7.2,-10.348 -9.9,-16.2 0.45,5.172 0.68,9.903 1.13,13.95 0,3.82 0.22,7.421 0.22,10.57 0,2.93 -1.12,5.18 -2.92,6.973 -2.03,1.578 -4.28,2.476 -6.75,2.476 -2.48,0 -4.5,-0.898 -6.3,-2.25 -2.03,-1.566 -3.38,-3.367 -4.05,-5.398 -0.23,-0.668 -0.45,-2.25 -0.45,-4.95 -0.23,-2.699 -0.45,-6.082 -0.45,-9.671 l -0.45,-12.598 v -12.832 c 0,-5.848 0,-11.469 0.45,-17.098 l 0.45,-17.101 c 0,-2.7 0.45,-5.399 0.9,-8.102 0.22,-2.699 1.12,-5.18 2.47,-7.199 1.8,-2.93 4.95,-4.5 9.45,-4.5 3.15,0 5.63,0.902 7.65,2.48 1.8,1.789 2.93,3.821 2.93,6.52 0,4.051 -0.45,8.551 -1.35,13.73 -1.13,4.95 -1.58,9.891 -1.58,14.84 0,1.813 0.45,4.281 1.58,7.211 1.12,2.699 2.47,5.399 4.27,8.551 1.58,2.918 3.38,6.07 5.63,9.437 2.02,3.153 4.05,6.082 5.85,9.231 0.9,1.582 2.47,3.383 4.27,5.633 1.8,2.019 3.83,4.047 6.08,5.847 2.25,1.789 4.95,3.153 7.65,4.493 2.47,1.359 5.17,2.027 7.87,2.027 0.68,0 1.8,-0.449 3.38,-0.899 0.45,-0.218 1.35,-0.218 2.7,-0.218 1.12,-0.231 1.8,-0.231 2.25,-0.231 1.57,0 3.15,0.899 4.95,2.699 1.35,1.801 2.25,3.379 2.25,5.168"
         style="fill:#000000;fill-opacity:1;fill-rule:nonzero;stroke:none"
         id="path86"
         inkscape:connector-curvature="0" /><path
         d="m 4130.87,467.281 c 0,0.231 -0.23,1.129 -0.68,2.469 -0.45,1.129 -0.9,1.809 -0.9,2.25 -0.9,2.031 -1.57,4.281 -2.02,6.531 -0.68,2.25 -1.13,4.719 -1.35,7.649 -0.45,2.699 -0.68,6.07 -0.68,9.898 -0.22,3.602 -0.22,8.102 -0.22,13.281 v 4.051 l 0.45,6.289 c 0,2.262 0,4.512 0.22,6.762 0,2.238 0.23,4.269 0.45,5.617 0.23,2.481 0.45,4.723 0.68,6.75 0,1.801 0.45,4.051 0.9,6.524 0.22,1.578 0.45,3.16 0.9,4.507 0,1.34 0.22,2.7 0.22,3.821 0,0.898 -0.67,1.8 -1.57,3.148 -1.35,1.133 -2.7,2.25 -4.05,3.152 -1.35,0.45 -2.7,1.129 -4.5,1.579 -1.8,0.441 -2.7,0.671 -3.15,0.671 -0.9,0 -1.8,-0.23 -2.7,-0.449 -1.35,-0.453 -2.25,-0.902 -2.7,-1.801 -0.9,-1.128 -1.35,-2.468 -1.8,-4.269 -0.45,-1.813 -0.45,-4.961 -0.45,-9.449 v -4.063 c 0,-2.469 0.22,-5.398 0.22,-8.551 0,-3.589 -0.22,-7.418 -0.22,-11.468 0,-4.27 -0.23,-8.328 -0.23,-12.371 -0.22,-3.61 -0.9,-7.43 -2.02,-11.25 -1.13,-4.059 -2.7,-7.879 -4.5,-11.25 -2.25,-3.379 -4.73,-6.079 -7.65,-8.098 -3.15,-2.25 -6.75,-3.383 -10.8,-3.383 -3.15,0 -5.85,0.684 -8.1,2.25 -2.7,1.352 -4.73,3.383 -6.3,6.082 -1.8,2.469 -2.93,5.399 -3.83,9 -0.9,3.371 -1.35,6.969 -1.35,11.02 0,0.679 0,2.25 0.23,4.949 v 16.883 c 0,2.687 0.22,4.5 0.22,5.386 0,1.364 0,3.383 0.45,6.313 l 0.9,8.32 0.68,3.828 c 0,1.34 0.22,3.153 0.22,5.403 0,1.797 -0.9,3.59 -2.7,5.398 -1.8,1.789 -4.27,2.699 -7.2,2.699 -2.92,0 -6.97,-1.8 -11.92,-5.179 0.22,-1.801 0.45,-4.051 0.9,-6.75 0.45,-2.918 0.67,-5.852 0.67,-8.551 0,-1.801 -0.22,-4.5 -0.22,-7.867 0,-3.614 -0.23,-6.981 -0.23,-10.582 -0.22,-3.602 -0.22,-6.981 -0.22,-9.668 -0.23,-3.16 -0.23,-4.953 -0.23,-5.864 0,-7.187 0.68,-13.718 2.03,-19.339 1.12,-5.629 3.15,-10.348 6.07,-14.18 2.7,-4.051 6.53,-6.969 11.48,-8.777 4.5,-2.243 10.35,-3.153 17.55,-3.153 3.37,0 7.65,0.91 12.6,2.699 4.95,1.813 9.22,4.961 13.05,9.911 1.57,-6.309 3.6,-10.797 5.85,-13.047 2.25,-2.481 4.95,-3.832 8.1,-3.832 2.47,0 4.72,0.898 6.75,2.25 1.8,1.351 2.7,3.148 2.7,5.851"
         style="fill:#000000;fill-opacity:1;fill-rule:nonzero;stroke:none"
         id="path88"
         inkscape:connector-curvature="0" /><path
         d="m 4257.54,522.18 c 0,5.851 -1.12,11.25 -2.92,16.199 -2.25,4.949 -5.18,9.223 -9,12.82 -3.83,3.61 -8.33,6.531 -13.73,8.781 -5.4,2.02 -11.7,3.149 -18.45,3.149 -6.3,0 -12.82,-1.57 -19.12,-4.5 -6.75,-3.149 -13.05,-7.879 -19.35,-14.617 v 8.097 c -0.23,1.789 -0.45,3.371 -0.45,4.719 -0.23,0.684 -0.45,1.352 -0.45,1.801 l -1.13,1.801 c -1.12,1.129 -2.25,2.25 -3.37,3.379 -1.35,0.89 -2.7,1.339 -4.05,1.339 -3.6,0 -6.3,-0.449 -8.55,-1.339 -2.48,-1.129 -3.6,-2.93 -3.6,-5.399 0,-1.808 0.22,-3.601 0.67,-4.961 l 0.68,-2.699 0.45,-2.469 c 0.45,-3.601 0.67,-6.972 1.12,-10.121 0.23,-3.148 0.45,-6.531 0.45,-9.91 0,-8.988 -0.22,-17.988 -0.22,-26.539 l -0.45,-26.781 v -13.5 c -0.23,-4.95 -0.23,-9.668 -0.23,-14.399 V 425.66 c 0,-0.91 0.23,-2.25 0.68,-4.058 0.22,-1.352 0.9,-2.922 2.02,-4.5 0.9,-1.122 2.03,-2.243 3.15,-3.372 0.9,-0.902 2.25,-1.57 4.05,-1.57 3.6,0 6.3,1.57 7.88,4.27 1.57,2.929 2.47,6.082 2.47,9.23 -0.45,1.34 -0.67,2.25 -0.67,3.149 l -0.68,3.589 c -0.22,0.911 -0.22,1.813 -0.22,2.704 l -0.45,2.929 v 5.399 c -0.23,2.48 -0.23,5.179 -0.23,8.332 0,3.136 -0.22,6.289 -0.22,9.898 v 10.789 c 5.62,-3.82 11.25,-6.519 16.87,-8.09 5.4,-1.8 10.58,-2.699 15.3,-2.699 9,0 16.88,1.789 23.63,5.399 6.3,3.601 11.7,8.55 15.97,14.402 4.05,5.848 7.2,12.148 9.23,19.348 1.8,7.203 2.92,14.171 2.92,21.371 z m -20.7,2.25 c 0,-7.649 -0.67,-14.399 -2.02,-20.469 -1.35,-6.313 -3.38,-11.711 -5.85,-16.199 -2.7,-4.512 -5.85,-8.102 -9.45,-10.364 -3.6,-2.699 -7.88,-3.82 -12.38,-3.82 -3.15,0 -6.52,0.453 -10.12,1.57 -3.83,0.911 -7.2,2.25 -10.35,4.063 -3.38,1.789 -6.08,4.039 -8.1,6.738 -2.25,2.481 -3.38,5.403 -3.38,8.551 v 7.43 c 0,4.269 0,7.879 0.23,10.582 0,2.468 0.45,4.718 1.35,6.968 0.9,3.149 2.7,6.75 5.85,10.348 2.92,3.602 6.3,6.973 10.35,10.121 4.05,2.93 8.32,5.403 13.05,7.653 4.5,1.808 8.77,2.929 13.05,2.929 3.6,0 6.52,-0.902 9,-2.48 2.25,-1.789 4.05,-4.039 5.4,-6.742 1.35,-2.7 2.25,-5.399 2.7,-8.547 0.45,-3.153 0.67,-5.852 0.67,-8.332"
         style="fill:#000000;fill-opacity:1;fill-rule:nonzero;stroke:none"
         id="path90"
         inkscape:connector-curvature="0" /><path
         d="m 4375.44,468.18 v 8.55 c -0.22,2.7 -0.22,5.629 -0.22,8.782 0,5.398 -0.23,10.797 -0.23,16.199 -0.45,5.168 -0.45,10.57 -0.45,15.969 0,5.398 -1.12,10.8 -2.92,16.199 -2.03,5.402 -4.73,10.133 -8.33,14.633 -3.82,4.047 -8.32,7.636 -13.5,10.34 -5.4,2.476 -11.47,3.828 -18.22,3.828 -2.03,0 -4.5,-0.231 -7.2,-0.68 -2.93,-0.441 -5.85,-0.891 -9,-1.57 -3.15,-0.899 -6.53,-1.801 -9.68,-2.7 -3.15,-1.128 -6.07,-2.468 -8.77,-3.832 -4.95,-2.699 -9,-5.386 -12.38,-8.546 -3.6,-3.372 -5.17,-6.743 -5.17,-9.891 0,-2.25 0.67,-4.281 2.47,-6.082 1.58,-1.801 3.6,-2.699 6.08,-2.699 2.47,0 4.95,0.898 7.2,2.699 l 3.37,3.383 c 0.9,0.886 1.8,2.019 3.15,3.367 1.35,1.133 2.93,2.48 4.95,3.82 1.8,1.36 4.05,2.699 6.53,4.063 2.25,1.34 4.95,2.25 7.87,3.148 2.7,0.891 5.63,1.352 8.78,1.352 4.05,0 7.65,-0.91 10.8,-2.25 3.15,-1.801 5.85,-3.832 8.1,-6.313 2.25,-2.469 3.82,-5.168 5.17,-8.32 1.35,-3.149 2.03,-6.301 2.48,-9.449 -4.73,-0.45 -9.9,-0.899 -15.53,-1.352 -5.85,-0.68 -11.92,-1.566 -17.77,-2.469 -6.08,-1.359 -11.93,-2.699 -17.55,-4.507 -5.85,-1.793 -10.8,-3.821 -15.08,-6.293 -4.5,-2.481 -8.1,-5.399 -10.8,-8.547 -2.7,-3.602 -4.05,-7.434 -4.05,-11.703 0,-4.059 0.9,-7.43 3.15,-10.348 2.25,-3.152 5.18,-5.852 9.23,-8.109 3.82,-2.25 8.32,-3.821 13.72,-4.954 4.95,-1.117 10.58,-1.57 16.88,-1.57 4.95,0 10.8,0.453 17.32,1.57 6.53,1.133 13.05,3.614 19.35,7.43 0,-4.047 0,-6.969 0.45,-8.316 0.23,-1.582 0.9,-2.934 2.03,-4.051 1.57,-1.801 4.27,-2.93 8.32,-2.93 3.15,0 5.63,1.129 7.2,2.93 1.35,1.789 2.25,4.719 2.25,9.219 z m -19.12,41.629 -0.68,-20.93 c -4.05,-4.949 -9.45,-8.777 -16.2,-11.481 -6.75,-2.699 -13.5,-4.039 -20.02,-4.039 -2.48,0 -5.18,0.219 -7.88,0.903 -2.7,0.668 -5.4,1.797 -7.65,3.136 -2.47,1.364 -4.5,2.93 -6.07,4.731 -1.8,1.801 -2.48,3.82 -2.48,6.082 0,4.269 2.25,7.867 6.75,10.801 4.5,2.699 9.9,4.718 16.2,6.297 6.3,1.57 13.05,2.703 20.25,3.371 6.75,0.449 12.83,0.898 17.78,1.129"
         style="fill:#000000;fill-opacity:1;fill-rule:nonzero;stroke:none"
         id="path92"
         inkscape:connector-curvature="0" /><path
         d="m 4549.14,461.879 c 2.93,0 5.4,0.449 7.65,1.57 2.03,0.91 3.15,2.93 3.15,5.629 0,1.801 -0.67,3.152 -1.57,4.5 -0.9,1.121 -2.25,2.031 -3.6,2.934 -1.58,0.886 -3.38,1.34 -5.18,1.797 -2.02,0.222 -4.05,0.453 -5.85,0.453 h -1.8 l -2.02,-0.453 -4.5,-0.911 c -1.8,-0.437 -4.28,-0.668 -7.2,-0.886 -2.93,-0.453 -6.08,-0.903 -9.23,-1.133 l -9.67,-0.68 c -3.38,-0.219 -6.3,-0.219 -8.78,-0.219 h -4.72 c -2.03,0 -2.93,0.899 -2.93,2.481 0,0.891 1.13,3.141 3.83,6.738 2.7,3.379 6.3,7.43 11.25,12.379 3.15,2.934 6.3,6.082 9.9,9.231 l 9.45,8.992 c 2.92,2.699 5.62,4.961 8.1,7.211 2.25,2.25 4.05,3.816 5.4,4.718 0.67,0.68 1.35,1.348 2.25,2.02 l 2.7,2.262 5.17,5.168 c 1.58,1.8 2.93,3.82 4.28,6.082 0.9,1.797 1.57,3.816 1.57,6.066 0,1.801 -0.67,3.371 -1.8,5.184 -1.35,1.797 -2.7,3.367 -4.5,4.949 -1.8,1.34 -3.82,2.25 -5.85,3.148 -2.25,0.891 -4.27,1.34 -6.07,1.34 -9.9,0 -20.03,-0.668 -30.15,-2.019 -10.13,-1.352 -19.8,-3.371 -29.25,-5.852 -2.48,-0.68 -4.05,-1.566 -4.95,-2.918 -0.9,-1.351 -1.35,-2.93 -1.35,-5.18 0,-2.25 0.67,-4.281 2.47,-6.07 1.58,-1.801 3.6,-2.699 6.08,-2.699 1.35,0 3.15,0.219 5.4,0.898 2.25,0.45 4.05,1.121 5.4,1.571 6.3,2.25 13.05,4.281 19.8,6.082 6.75,1.566 13.95,2.468 21.15,2.468 0.67,0 1.35,-0.449 2.25,-1.128 0.67,-0.672 1.12,-1.34 1.12,-2.024 l -2.47,-3.148 c -1.8,-2.02 -4.5,-4.5 -7.88,-7.649 -3.15,-2.703 -6.52,-5.621 -10.12,-8.769 -3.83,-3.614 -7.65,-7.203 -11.48,-10.801 -4.05,-4.063 -8.1,-7.883 -11.7,-11.711 -3.82,-4.039 -7.2,-7.641 -10.12,-11.25 -2.93,-3.602 -5.18,-6.969 -6.75,-10.121 -1.8,-3.149 -2.7,-5.848 -2.7,-8.098 0,-4.5 1.8,-7.883 5.4,-10.133 3.6,-2.238 7.87,-3.589 12.37,-3.589 7.2,0 14.63,0.441 22.73,1.351 7.87,0.668 15.52,1.121 22.72,1.121 2.03,0 4.05,-0.222 6.3,-0.453 2.03,-0.449 4.05,-0.449 6.3,-0.449"
         style="fill:#000000;fill-opacity:1;fill-rule:nonzero;stroke:none"
         id="path94"
         inkscape:connector-curvature="0" /><path
         d="m 4671.99,479.879 c 0,0.902 -0.67,2.031 -1.8,3.371 -1.35,1.359 -2.92,2.031 -4.72,2.031 -2.25,0 -4.28,-0.672 -6.08,-1.801 -2.02,-1.351 -4.05,-2.699 -6.3,-4.05 -2.47,-1.352 -4.95,-2.7 -7.65,-3.821 -2.7,-1.347 -5.62,-2.25 -8.32,-2.929 -2.93,-0.899 -5.85,-1.121 -8.55,-1.121 -4.95,0 -9.45,0.89 -13.28,2.703 -4.05,1.566 -7.65,3.816 -10.35,6.968 -2.92,2.93 -4.95,6.532 -6.07,11.02 -1.35,4.512 -1.8,9.012 -1.8,13.73 3.6,-2.25 7.87,-3.82 12.82,-5.171 4.95,-1.348 9.68,-2.028 14.18,-2.028 6.3,0 12.37,0.68 18.22,2.481 5.85,1.789 10.8,4.047 15.3,6.968 4.28,2.7 7.65,6.071 10.35,9.899 2.7,3.601 4.05,7.652 4.05,11.93 0,5.851 -1.8,11.25 -5.4,15.75 -3.82,4.269 -8.55,7.871 -14.17,11.019 -4.5,2.25 -9.9,4.051 -15.75,5.402 -6.08,1.129 -11.7,1.801 -16.88,1.801 -5.17,0 -10.12,-1.801 -15.07,-5.402 -4.95,-3.598 -9.45,-8.32 -13.28,-13.949 -4.05,-5.852 -7.42,-12.371 -9.9,-19.578 -2.47,-7.192 -3.6,-14.622 -3.6,-21.821 0,-5.402 0.9,-10.801 2.7,-15.972 1.8,-5.399 4.73,-9.911 8.55,-13.95 3.83,-4.058 8.78,-7.429 14.85,-9.91 5.85,-2.25 12.83,-3.59 21.15,-3.59 4.95,0 10.13,0.45 15.75,1.34 5.4,0.91 10.35,2.481 14.85,4.281 4.5,1.801 8.55,3.821 11.7,6.301 2.93,2.25 4.5,4.949 4.5,8.098 z m -16.2,49.5 c 0,-2.699 -1.12,-5.168 -2.92,-7.418 -2.03,-2.262 -4.5,-4.281 -7.43,-5.852 -3.15,-1.578 -6.75,-2.699 -10.35,-3.597 -3.82,-0.91 -7.42,-1.364 -11.02,-1.364 -6.3,0 -11.7,0.911 -15.98,3.153 -4.5,1.808 -7.2,4.73 -8.55,8.551 0.9,3.609 2.25,6.976 4.05,10.359 1.8,3.141 3.83,6.07 6.3,8.551 2.25,2.468 4.73,4.5 7.65,6.066 2.7,1.352 5.63,2.25 8.78,2.25 2.92,0 6.3,-0.449 10.12,-1.348 3.83,-0.902 7.2,-2.25 9.9,-3.832 2.7,-1.789 4.95,-3.82 6.75,-6.289 1.8,-2.699 2.7,-5.847 2.7,-9.23"
         style="fill:#000000;fill-opacity:1;fill-rule:nonzero;stroke:none"
         id="path96"
         inkscape:connector-curvature="0" /><path
         d="m 4815.54,536.801 c 0,2.48 -0.22,5.398 -0.45,8.551 -0.22,3.16 -0.67,6.078 -1.35,8.777 -0.9,2.699 -2.25,4.949 -3.6,6.75 -1.57,1.801 -3.6,2.699 -5.85,2.699 -2.92,0 -5.4,-0.898 -7.65,-2.699 -1.35,-1.117 -2.02,-2.027 -2.47,-2.699 -0.45,-0.899 -0.68,-1.801 -0.68,-2.918 0,-1.364 0.45,-2.481 1.35,-3.602 l 2.03,-3.609 c 0.67,-1.34 1.12,-3.153 1.57,-5.403 0,-2.238 0.23,-5.386 0.23,-9.218 0,-9.219 -1.35,-19.352 -4.05,-30.149 -1.8,-7.203 -3.83,-13.051 -6.53,-17.551 -2.92,-4.5 -6.52,-6.75 -11.02,-6.75 -2.25,0 -4.28,0.899 -6.08,2.7 -1.8,1.8 -3.37,4.05 -4.72,6.968 -1.35,2.93 -2.48,6.301 -3.38,10.133 -0.9,3.598 -1.12,7.649 -1.12,11.699 v 21.379 c 0,2.02 -0.9,3.602 -2.7,4.942 -1.8,1.129 -3.83,1.808 -5.63,1.808 -2.02,0 -3.82,-0.449 -5.4,-1.347 -1.8,-1.133 -3.15,-2.703 -3.82,-4.731 0,-0.222 -0.23,-0.672 -0.23,-1.351 -0.22,-0.899 -0.22,-1.352 -0.22,-1.571 0,-1.359 0.22,-2.699 0.67,-4.058 0.23,-1.571 0.45,-2.922 0.45,-4.039 0,-4.063 -0.45,-8.332 -1.35,-13.282 -0.9,-4.949 -2.25,-9.671 -4.05,-13.949 -1.8,-4.5 -3.82,-8.101 -6.3,-11.031 -2.7,-2.922 -5.62,-4.27 -8.77,-4.27 -5.4,0 -9.45,4.27 -12.6,13.051 -3.15,8.547 -4.73,22.5 -4.73,41.848 0,3.152 0.23,6.531 0.9,9.68 0.68,3.152 1.58,6.07 2.48,9.222 -0.45,2.25 -1.8,4.278 -4.05,5.629 -4.05,2.02 -6.98,3.149 -9,3.149 -1.58,0 -2.7,-0.68 -3.38,-1.579 -0.9,-1.128 -1.57,-2.25 -2.02,-3.601 -0.45,-1.801 -0.9,-3.367 -1.13,-5.18 l -0.45,-4.937 c -0.45,-3.153 -0.45,-6.313 -0.45,-9.461 v -8.551 c 0,-5.398 0.45,-11.922 1.8,-19.352 0.9,-7.636 2.93,-14.617 5.85,-21.367 2.7,-6.75 6.3,-12.601 11.03,-17.32 4.5,-4.731 10.35,-6.981 17.55,-6.981 4.5,0 9,1.801 13.27,5.622 4.28,3.597 8.1,10.128 11.48,19.578 1.57,-4.051 3.6,-7.43 6.07,-10.352 2.25,-3.148 4.5,-5.629 7.2,-7.648 2.7,-2.25 5.4,-3.828 8.1,-4.719 2.7,-1.133 5.18,-1.582 7.65,-1.582 5.18,0 10.13,2.25 14.85,6.98 4.5,4.5 8.78,11.922 12.6,22.27 1.35,3.82 2.48,7.883 3.6,11.93 0.9,4.05 1.8,8.101 2.7,12.14 l 1.35,10.801 c 0.23,3.148 0.45,6.078 0.45,8.551"
         style="fill:#000000;fill-opacity:1;fill-rule:nonzero;stroke:none"
         id="path98"
         inkscape:connector-curvature="0" /><path
         d="m 4927.37,498.781 v 8.778 c 0,2.703 -0.23,5.621 -0.23,8.55 -0.45,6.071 -1.12,11.469 -2.02,16.2 -1.13,4.492 -2.48,8.32 -4.28,11.703 -1.8,3.367 -3.82,6.297 -6.3,9 -2.7,2.25 -5.4,4.5 -8.55,6.289 -2.25,1.129 -4.5,2.258 -7.2,3.148 -2.92,0.68 -5.62,1.129 -8.1,1.129 -6.75,0 -13.27,-2.469 -19.35,-6.976 -6.3,-4.493 -11.02,-10.793 -14.62,-18.891 0,3.148 0.22,5.617 0.45,7.641 0,1.808 0.22,3.16 0.22,4.507 0,0.891 0.23,1.801 0.23,2.7 v 2.703 c 0,3.148 -0.68,5.398 -1.8,6.968 -1.35,1.348 -3.6,2.25 -6.98,2.25 -2.7,0 -4.95,-0.671 -7.2,-2.031 -2.47,-1.57 -3.6,-3.371 -3.6,-5.39 0,-1.348 0,-2.25 0.23,-2.7 0.45,-3.609 0.67,-6.98 0.67,-10.129 l 0.45,-13.05 v -44.782 c -0.22,-3.367 -0.22,-6.296 -0.22,-8.769 -0.23,-2.699 -0.45,-4.719 -0.68,-6.301 -0.22,-1.797 -0.22,-3.148 -0.22,-4.047 0,-2.25 0.67,-3.832 2.02,-5.172 1.13,-1.129 3.38,-1.8 6.98,-1.8 1.35,0 2.7,0.441 3.82,0.89 l 2.7,2.031 c 1.58,1.579 2.48,3.829 2.93,6.52 0.22,2.48 0.45,4.73 0.45,6.98 0,4.051 0,8.329 0.22,12.829 0,4.5 0.23,8.769 0.23,12.82 0,2.699 0.45,6.301 1.35,10.582 0.9,4.039 2.25,8.32 4.5,12.82 1.35,3.149 3.15,6.528 5.17,9.68 1.8,2.918 4.05,5.617 6.3,8.098 2.25,2.25 4.73,4.269 7.2,5.851 2.48,1.34 5.18,2.02 7.88,2.02 3.82,0 7.42,-2.25 10.57,-6.301 2.93,-4.27 4.95,-10.117 6.3,-17.77 0.45,-2.699 0.68,-5.398 1.13,-8.55 l 0.67,-8.778 0.45,-7.871 v -17.781 c -0.22,-3.598 -0.22,-6.07 -0.22,-7.649 0,-1.351 -0.23,-2.468 -0.45,-3.601 -0.45,-1.348 -0.45,-2.25 -0.45,-3.149 0,-7.421 2.25,-11.019 6.97,-11.019 3.83,0 6.75,1.117 9,3.367 2.03,2.25 3.15,5.184 3.15,9 v 13.731 c 0,4.722 0.23,9.222 0.23,13.722"
         style="fill:#000000;fill-opacity:1;fill-rule:nonzero;stroke:none"
         id="path100"
         inkscape:connector-curvature="0" /><path
         d="m 5025.69,437.129 c 0,1.801 -0.67,3.152 -2.02,4.269 -1.35,1.133 -2.7,1.582 -4.28,1.582 -1.35,0 -2.25,-0.449 -3.15,-1.582 l -0.9,-1.117 c -0.9,-0.672 -1.8,-1.351 -2.92,-2.031 -1.35,-0.441 -2.7,-0.891 -4.5,-0.891 -3.6,0 -6.3,1.121 -8.1,3.153 -1.8,2.25 -2.7,5.168 -2.7,8.547 0,0.89 0,1.57 0.45,2.472 0.45,0.899 0.9,1.797 1.35,2.481 0.67,1.566 1.35,2.699 2.25,3.59 0.67,0.898 1.35,1.578 1.8,2.476 4.5,0.453 9.45,1.352 14.4,2.481 4.72,0.89 9,2.25 13.05,4.043 4.05,1.808 7.2,3.828 9.9,6.078 2.25,2.25 3.6,4.5 3.6,7.199 0,0.902 -0.68,2.031 -1.8,3.371 -1.35,1.359 -2.93,2.031 -4.73,2.031 -2.25,0 -4.27,-0.672 -6.07,-1.801 -2.03,-1.351 -4.05,-2.699 -6.3,-4.05 -2.48,-1.352 -4.95,-2.7 -7.65,-3.821 -2.7,-1.347 -5.63,-2.25 -8.33,-2.929 -2.92,-0.899 -5.85,-1.121 -8.55,-1.121 -4.95,0 -9.45,0.89 -13.27,2.703 -4.05,1.566 -7.65,3.816 -10.35,6.968 -2.93,2.93 -4.95,6.532 -6.08,11.02 -1.35,4.512 -1.8,9.012 -1.8,13.73 3.6,-2.25 7.88,-3.82 12.83,-5.171 4.95,-1.348 9.67,-2.028 14.17,-2.028 6.3,0 12.38,0.68 18.23,2.481 5.85,1.789 10.8,4.047 15.3,6.968 4.27,2.7 7.65,6.071 10.35,9.899 2.7,3.601 4.05,7.652 4.05,11.93 0,5.851 -1.8,11.25 -5.4,15.75 -3.83,4.269 -8.55,7.871 -14.18,11.019 -4.5,2.25 -9.9,4.051 -15.75,5.402 -6.07,1.129 -11.7,1.801 -16.87,1.801 -5.18,0 -10.13,-1.801 -15.08,-5.402 -4.95,-3.598 -9.45,-8.32 -13.27,-13.949 -4.05,-5.852 -7.43,-12.371 -9.9,-19.578 -2.48,-7.192 -3.6,-14.622 -3.6,-21.821 0,-4.953 0.67,-9.902 2.25,-14.633 1.57,-4.949 4.05,-9.437 7.2,-13.269 3.15,-4.051 7.42,-7.199 12.6,-9.899 4.95,-2.699 10.8,-4.281 17.77,-5.171 -1.35,-1.809 -2.25,-3.598 -2.92,-5.411 -0.9,-1.789 -1.13,-3.589 -1.13,-5.839 0,-7.2 1.8,-12.829 5.63,-17.098 3.82,-4.051 9.45,-6.082 16.65,-6.082 1.35,0 3.15,0.23 5.4,0.68 2.02,0.671 4.05,1.351 5.85,2.25 1.8,1.121 3.15,2.25 4.5,3.589 1.35,1.582 2.02,3.153 2.02,4.731 z m 2.03,92.25 c 0,-2.699 -1.13,-5.168 -2.93,-7.418 -2.02,-2.262 -4.5,-4.281 -7.42,-5.852 -3.15,-1.578 -6.75,-2.699 -10.35,-3.597 -3.83,-0.91 -7.43,-1.364 -11.03,-1.364 -6.3,0 -11.7,0.911 -15.97,3.153 -4.5,1.808 -7.2,4.73 -8.55,8.551 0.9,3.609 2.25,6.976 4.05,10.359 1.8,3.141 3.82,6.07 6.3,8.551 2.25,2.468 4.72,4.5 7.65,6.066 2.7,1.352 5.62,2.25 8.77,2.25 2.93,0 6.3,-0.449 10.13,-1.348 3.82,-0.902 7.2,-2.25 9.9,-3.832 2.7,-1.789 4.95,-3.82 6.75,-6.289 1.8,-2.699 2.7,-5.847 2.7,-9.23"
         style="fill:#000000;fill-opacity:1;fill-rule:nonzero;stroke:none"
         id="path102"
         inkscape:connector-curvature="0" /><path
         d="m 5137.74,475.379 c 0,1.133 -0.67,2.25 -1.57,3.383 -0.9,0.898 -2.25,1.34 -3.83,1.34 -2.02,0 -3.37,-0.442 -4.27,-1.34 -0.9,-0.91 -1.58,-2.032 -2.03,-3.153 -0.45,-0.679 -0.67,-1.347 -1.12,-1.8 -0.45,-0.45 -0.68,-0.899 -0.68,-0.899 -1.8,-1.582 -4.05,-2.25 -6.75,-2.25 -4.05,0 -7.2,1.789 -9.67,5.399 -2.7,3.601 -3.83,9.671 -3.83,18.222 0,6.981 0,14.168 0.45,21.379 0.23,6.969 0.68,14.621 1.13,22.719 1.12,0 2.7,0.23 4.5,0.449 l 4.95,0.453 c 4.05,0.449 7.65,1.129 10.8,2.028 2.7,0.671 4.95,1.57 7.2,2.703 2.25,0.886 3.37,2.468 3.37,4.269 0,1.348 -0.67,2.25 -1.57,2.699 -1.35,0.45 -2.48,0.68 -3.6,1.129 -0.68,0 -1.58,0 -2.7,0.45 l -4.5,0.453 h -17.55 c 0,0.886 0.22,2.25 0.45,4.269 l 0.9,6.297 0.9,6.75 c 0,2.25 0.22,4.051 0.67,5.621 l 0.68,4.063 c 0.22,1.117 0.45,2.468 0.45,3.816 0,0.902 -0.68,1.801 -1.8,2.934 -1.13,0.886 -2.48,1.797 -3.83,2.699 -1.57,0.668 -3.15,1.348 -4.72,2.019 -1.8,0.45 -3.38,0.899 -4.28,0.899 -1.8,0 -3.37,-0.219 -4.72,-0.668 -1.8,-0.449 -2.93,-1.133 -3.6,-1.813 -0.23,-0.218 -0.45,-0.668 -0.68,-1.339 -0.45,-0.68 -0.45,-1.36 -0.45,-2.028 0,-0.902 -0.22,-2.922 -0.22,-6.07 0,-3.152 -0.23,-6.762 -0.23,-10.359 -0.22,-3.59 -0.22,-7.192 -0.22,-10.34 -0.23,-3.614 -0.23,-5.864 -0.23,-6.981 -0.9,0 -2.47,-0.222 -4.27,-0.222 l -5.85,-0.45 c -2.25,0 -4.28,-0.23 -6.3,-0.23 -2.03,-0.219 -3.6,-0.219 -4.73,-0.219 -2.25,0 -3.82,-0.461 -5.17,-0.91 -1.35,-0.672 -1.8,-1.789 -1.8,-3.371 0,-3.149 0.67,-5.848 2.47,-8.551 1.58,-2.699 3.83,-4.047 6.98,-4.047 2.25,0 4.95,0.231 8.1,0.68 l 10.12,0.891 c -0.22,-7.422 -0.22,-14.172 -0.22,-20.473 -0.23,-6.301 -0.23,-12.598 -0.23,-18.68 0,-4.488 0.23,-8.769 1.13,-13.039 0.67,-4.5 2.02,-8.551 4.05,-12.16 2.02,-3.59 4.95,-6.289 8.55,-8.551 3.37,-2.25 7.87,-3.371 13.72,-3.371 2.25,0 4.95,0.453 8.33,1.121 3.15,0.68 6.07,1.813 8.77,3.16 2.03,1.121 4.05,2.7 5.85,4.942 1.8,1.808 2.7,3.828 2.7,6.078"
         style="fill:#000000;fill-opacity:1;fill-rule:nonzero;stroke:none"
         id="path104"
         inkscape:connector-curvature="0" /><path
         d="m 5238.09,556.148 c 0,1.364 -0.67,2.704 -1.57,4.063 -1.13,0.898 -2.48,1.789 -4.05,2.699 -1.8,0.899 -3.38,1.57 -5.18,2.02 -2.02,0.449 -3.82,0.679 -5.17,0.679 -3.6,0 -7.2,-0.91 -11.03,-2.699 -4.05,-1.801 -7.87,-4.058 -11.7,-7.199 -4.05,-3.383 -7.87,-7.43 -11.47,-12.152 -3.83,-4.95 -7.2,-10.348 -9.9,-16.2 0.45,5.172 0.67,9.903 1.12,13.95 0,3.82 0.23,7.421 0.23,10.57 0,2.93 -1.13,5.18 -2.93,6.973 -2.02,1.578 -4.27,2.476 -6.75,2.476 -2.47,0 -4.5,-0.898 -6.3,-2.25 -2.02,-1.566 -3.37,-3.367 -4.05,-5.398 -0.22,-0.668 -0.45,-2.25 -0.45,-4.95 -0.22,-2.699 -0.45,-6.082 -0.45,-9.671 l -0.45,-12.598 v -12.832 c 0,-5.848 0,-11.469 0.45,-17.098 l 0.45,-17.101 c 0,-2.7 0.45,-5.399 0.9,-8.102 0.23,-2.699 1.13,-5.18 2.48,-7.199 1.8,-2.93 4.95,-4.5 9.45,-4.5 3.15,0 5.62,0.902 7.65,2.48 1.8,1.789 2.92,3.821 2.92,6.52 0,4.051 -0.45,8.551 -1.35,13.73 -1.12,4.95 -1.57,9.891 -1.57,14.84 0,1.813 0.45,4.281 1.57,7.211 1.13,2.699 2.48,5.399 4.28,8.551 1.57,2.918 3.37,6.07 5.62,9.437 2.03,3.153 4.05,6.082 5.85,9.231 0.9,1.582 2.48,3.383 4.28,5.633 1.8,2.019 3.82,4.047 6.07,5.847 2.25,1.789 4.95,3.153 7.65,4.493 2.48,1.359 5.18,2.027 7.88,2.027 0.67,0 1.8,-0.449 3.37,-0.899 0.45,-0.218 1.35,-0.218 2.7,-0.218 1.13,-0.231 1.8,-0.231 2.25,-0.231 1.58,0 3.15,0.899 4.95,2.699 1.35,1.801 2.25,3.379 2.25,5.168"
         style="fill:#000000;fill-opacity:1;fill-rule:nonzero;stroke:none"
         id="path106"
         inkscape:connector-curvature="0" /><path
         d="m 5327.87,461.879 c 2.92,0 5.4,0.449 7.65,1.57 2.02,0.91 3.15,2.93 3.15,5.629 0,1.801 -0.68,3.152 -1.58,4.5 -0.9,1.121 -2.25,2.031 -3.6,2.934 -1.57,0.886 -3.37,1.34 -5.17,1.797 -2.03,0.222 -4.05,0.453 -5.85,0.453 h -1.8 l -2.03,-0.453 -4.5,-0.911 c -1.8,-0.437 -4.27,-0.668 -7.2,-0.886 -2.92,-0.453 -6.07,-0.903 -9.22,-1.133 l -9.68,-0.68 c -3.37,-0.219 -6.3,-0.219 -8.77,-0.219 h -4.73 c -2.02,0 -2.92,0.899 -2.92,2.481 0,0.891 1.12,3.141 3.82,6.738 2.7,3.379 6.3,7.43 11.25,12.379 3.15,2.934 6.3,6.082 9.9,9.231 l 9.45,8.992 c 2.93,2.699 5.63,4.961 8.1,7.211 2.25,2.25 4.05,3.816 5.4,4.718 0.68,0.68 1.35,1.348 2.25,2.02 l 2.7,2.262 5.18,5.168 c 1.57,1.8 2.92,3.82 4.27,6.082 0.9,1.797 1.58,3.816 1.58,6.066 0,1.801 -0.68,3.371 -1.8,5.184 -1.35,1.797 -2.7,3.367 -4.5,4.949 -1.8,1.34 -3.83,2.25 -5.85,3.148 -2.25,0.891 -4.28,1.34 -6.08,1.34 -9.9,0 -20.02,-0.668 -30.15,-2.019 -10.12,-1.352 -19.8,-3.371 -29.25,-5.852 -2.47,-0.68 -4.05,-1.566 -4.95,-2.918 -0.9,-1.351 -1.35,-2.93 -1.35,-5.18 0,-2.25 0.68,-4.281 2.48,-6.07 1.57,-1.801 3.6,-2.699 6.07,-2.699 1.35,0 3.15,0.219 5.4,0.898 2.25,0.45 4.05,1.121 5.4,1.571 6.3,2.25 13.05,4.281 19.8,6.082 6.75,1.566 13.95,2.468 21.15,2.468 0.68,0 1.35,-0.449 2.25,-1.128 0.68,-0.672 1.13,-1.34 1.13,-2.024 l -2.48,-3.148 c -1.8,-2.02 -4.5,-4.5 -7.87,-7.649 -3.15,-2.703 -6.53,-5.621 -10.13,-8.769 -3.82,-3.614 -7.65,-7.203 -11.47,-10.801 -4.05,-4.063 -8.1,-7.883 -11.7,-11.711 -3.83,-4.039 -7.2,-7.641 -10.13,-11.25 -2.92,-3.602 -5.17,-6.969 -6.75,-10.121 -1.8,-3.149 -2.7,-5.848 -2.7,-8.098 0,-4.5 1.8,-7.883 5.4,-10.133 3.6,-2.238 7.88,-3.589 12.38,-3.589 7.2,0 14.62,0.441 22.72,1.351 7.88,0.668 15.53,1.121 22.73,1.121 2.02,0 4.05,-0.222 6.3,-0.453 2.02,-0.449 4.05,-0.449 6.3,-0.449"
         style="fill:#000000;fill-opacity:1;fill-rule:nonzero;stroke:none"
         id="path108"
         inkscape:connector-curvature="0" /><path
         d="m 5450.49,498.781 v 8.778 c 0,2.703 -0.22,5.621 -0.22,8.55 -0.45,6.071 -1.13,11.469 -2.03,16.2 -1.12,4.492 -2.47,8.32 -4.27,11.703 -1.8,3.367 -3.83,6.297 -6.3,9 -2.7,2.25 -5.4,4.5 -8.55,6.289 -2.25,1.129 -4.5,2.258 -7.2,3.148 -2.93,0.68 -5.63,1.129 -8.1,1.129 -6.75,0 -13.28,-2.469 -19.35,-6.976 -6.3,-4.493 -11.03,-10.793 -14.63,-18.891 0,3.148 0.23,5.617 0.45,7.641 0,1.808 0.23,3.16 0.23,4.507 0,0.891 0.22,1.801 0.22,2.7 v 2.703 c 0,3.148 -0.67,5.398 -1.8,6.968 -1.35,1.348 -3.6,2.25 -6.97,2.25 -2.7,0 -4.95,-0.671 -7.2,-2.031 -2.48,-1.57 -3.6,-3.371 -3.6,-5.39 0,-1.348 0,-2.25 0.22,-2.7 0.45,-3.609 0.68,-6.98 0.68,-10.129 l 0.45,-13.05 v -44.782 c -0.23,-3.367 -0.23,-6.296 -0.23,-8.769 -0.22,-2.699 -0.45,-4.719 -0.67,-6.301 -0.23,-1.797 -0.23,-3.148 -0.23,-4.047 0,-2.25 0.68,-3.832 2.03,-5.172 1.12,-1.129 3.37,-1.8 6.97,-1.8 1.35,0 2.7,0.441 3.83,0.89 l 2.7,2.031 c 1.57,1.579 2.47,3.829 2.92,6.52 0.23,2.48 0.45,4.73 0.45,6.98 0,4.051 0,8.329 0.23,12.829 0,4.5 0.22,8.769 0.22,12.82 0,2.699 0.45,6.301 1.35,10.582 0.9,4.039 2.25,8.32 4.5,12.82 1.35,3.149 3.15,6.528 5.18,9.68 1.8,2.918 4.05,5.617 6.3,8.098 2.25,2.25 4.72,4.269 7.2,5.851 2.47,1.34 5.17,2.02 7.87,2.02 3.83,0 7.43,-2.25 10.58,-6.301 2.92,-4.27 4.95,-10.117 6.3,-17.77 0.45,-2.699 0.67,-5.398 1.12,-8.55 l 0.68,-8.778 0.45,-7.871 v -17.781 c -0.23,-3.598 -0.23,-6.07 -0.23,-7.649 0,-1.351 -0.22,-2.468 -0.45,-3.601 -0.45,-1.348 -0.45,-2.25 -0.45,-3.149 0,-7.421 2.25,-11.019 6.98,-11.019 3.82,0 6.75,1.117 9,3.367 2.02,2.25 3.15,5.184 3.15,9 v 13.731 c 0,4.722 0.22,9.222 0.22,13.722"
         style="fill:#000000;fill-opacity:1;fill-rule:nonzero;stroke:none"
         id="path110"
         inkscape:connector-curvature="0" /><path
         d="m 5572.89,468.18 v 8.55 c -0.22,2.7 -0.22,5.629 -0.22,8.782 0,5.398 -0.23,10.797 -0.23,16.199 -0.45,5.168 -0.45,10.57 -0.45,15.969 0,5.398 -1.12,10.8 -2.92,16.199 -2.03,5.402 -4.73,10.133 -8.33,14.633 -3.82,4.047 -8.32,7.636 -13.5,10.34 -5.4,2.476 -11.47,3.828 -18.22,3.828 -2.03,0 -4.5,-0.231 -7.2,-0.68 -2.93,-0.441 -5.85,-0.891 -9,-1.57 -3.15,-0.899 -6.53,-1.801 -9.68,-2.7 -3.15,-1.128 -6.07,-2.468 -8.77,-3.832 -4.95,-2.699 -9,-5.386 -12.38,-8.546 -3.6,-3.372 -5.17,-6.743 -5.17,-9.891 0,-2.25 0.67,-4.281 2.47,-6.082 1.58,-1.801 3.6,-2.699 6.08,-2.699 2.47,0 4.95,0.898 7.2,2.699 l 3.37,3.383 c 0.9,0.886 1.8,2.019 3.15,3.367 1.35,1.133 2.93,2.48 4.95,3.82 1.8,1.36 4.05,2.699 6.53,4.063 2.25,1.34 4.95,2.25 7.87,3.148 2.7,0.891 5.63,1.352 8.78,1.352 4.05,0 7.65,-0.91 10.8,-2.25 3.15,-1.801 5.85,-3.832 8.1,-6.313 2.25,-2.469 3.82,-5.168 5.17,-8.32 1.35,-3.149 2.03,-6.301 2.48,-9.449 -4.73,-0.45 -9.9,-0.899 -15.53,-1.352 -5.85,-0.68 -11.92,-1.566 -17.77,-2.469 -6.08,-1.359 -11.93,-2.699 -17.55,-4.507 -5.85,-1.793 -10.8,-3.821 -15.08,-6.293 -4.5,-2.481 -8.1,-5.399 -10.8,-8.547 -2.7,-3.602 -4.05,-7.434 -4.05,-11.703 0,-4.059 0.9,-7.43 3.15,-10.348 2.25,-3.152 5.18,-5.852 9.23,-8.109 3.82,-2.25 8.32,-3.821 13.72,-4.954 4.95,-1.117 10.58,-1.57 16.88,-1.57 4.95,0 10.8,0.453 17.32,1.57 6.53,1.133 13.05,3.614 19.35,7.43 0,-4.047 0,-6.969 0.45,-8.316 0.23,-1.582 0.9,-2.934 2.03,-4.051 1.57,-1.801 4.27,-2.93 8.32,-2.93 3.15,0 5.63,1.129 7.2,2.93 1.35,1.789 2.25,4.719 2.25,9.219 z m -19.12,41.629 -0.68,-20.93 c -4.05,-4.949 -9.45,-8.777 -16.2,-11.481 -6.75,-2.699 -13.5,-4.039 -20.02,-4.039 -2.48,0 -5.18,0.219 -7.88,0.903 -2.7,0.668 -5.4,1.797 -7.65,3.136 -2.47,1.364 -4.5,2.93 -6.07,4.731 -1.8,1.801 -2.48,3.82 -2.48,6.082 0,4.269 2.25,7.867 6.75,10.801 4.5,2.699 9.9,4.718 16.2,6.297 6.3,1.57 13.05,2.703 20.25,3.371 6.75,0.449 12.83,0.898 17.78,1.129"
         style="fill:#000000;fill-opacity:1;fill-rule:nonzero;stroke:none"
         id="path112"
         inkscape:connector-curvature="0" /><path
         d="m 3876.84,398.43 c 0,3.371 -1.12,6.07 -2.92,8.332 -2.03,2.008 -4.73,3.136 -7.88,3.136 -2.25,0 -4.5,-1.128 -6.75,-2.918 -2.25,-2.031 -4.05,-4.73 -5.85,-8.101 -2.02,-3.598 -3.82,-7.649 -5.4,-12.367 -1.57,-4.731 -2.92,-9.903 -3.82,-15.532 -1.35,-6.75 -2.48,-13.5 -3.38,-20.25 -0.9,-6.98 -1.57,-13.5 -2.02,-19.582 -0.68,-6.07 -1.13,-11.468 -1.13,-16.187 -0.45,-4.961 -0.45,-8.551 -0.45,-10.801 0,-11.48 0.45,-22.949 1.8,-34.66 1.35,-11.922 3.15,-23.391 5.63,-34.641 0.45,-2.257 1.12,-5.398 2.47,-9.23 1.13,-3.598 2.48,-7.418 4.05,-11.469 1.35,-3.609 3.15,-7.199 4.95,-10.351 1.58,-3.161 3.15,-5.18 4.95,-6.309 0.9,-0.672 2.25,-1.121 3.6,-1.121 4.28,0 6.53,2.699 6.53,8.101 0,2.25 -0.23,4.5 -0.68,6.532 -2.25,3.367 -4.27,7.636 -6.07,12.816 -1.8,5.402 -3.38,11.031 -4.73,17.102 -1.35,6.07 -2.47,12.601 -3.37,19.351 -0.9,6.75 -1.8,13.27 -2.25,19.578 -0.68,6.289 -1.13,12.141 -1.35,17.539 -0.45,5.411 -0.45,9.903 -0.45,13.731 0,8.551 0.45,17.101 1.57,25.871 1.13,8.559 2.48,16.879 4.05,25.43 0.68,4.281 2.25,8.781 4.5,13.281 2.25,4.269 4.73,8.098 7.88,11.469 l 2.25,2.699 c 0.67,0.902 1.35,1.801 2.25,2.93 1.35,1.793 2.02,3.82 2.02,5.621"
         style="fill:#000000;fill-opacity:1;fill-rule:nonzero;stroke:none"
         id="path114"
         inkscape:connector-curvature="0" /><path
         d="m 3994.74,287.059 c 0,7.871 -1.35,15.07 -3.6,21.589 -2.47,6.313 -5.85,11.93 -10.35,16.43 -4.5,4.5 -9.9,7.883 -16.2,10.57 -6.52,2.262 -13.72,3.614 -21.82,3.614 -6.53,0 -12.6,-1.582 -18,-4.5 -5.63,-3.153 -10.58,-7.434 -14.63,-12.602 -4.05,-5.398 -7.2,-11.48 -9.45,-18.23 -2.47,-6.969 -3.6,-14.168 -3.6,-21.828 0,-7.641 1.13,-14.391 3.6,-20.692 2.25,-6.308 5.4,-11.48 9.68,-15.762 4.05,-4.5 9,-8.089 14.62,-10.339 5.63,-2.258 11.7,-3.61 18.45,-3.61 7.43,0 14.4,1.582 20.7,4.512 6.3,2.699 11.7,6.738 16.2,11.918 4.5,4.949 7.88,11.031 10.58,17.781 2.47,6.52 3.82,13.488 3.82,21.149 z m -15.75,2.921 c 0,-6.531 -0.9,-12.378 -2.7,-17.781 -2.02,-5.398 -4.5,-9.898 -7.65,-13.488 -3.15,-4.051 -6.97,-6.981 -11.25,-9.012 -4.27,-2.238 -8.77,-3.14 -13.27,-3.14 -4.95,0 -9.23,0.902 -12.83,2.703 -3.6,1.566 -6.75,4.047 -9,7.199 -2.47,3.141 -4.27,6.75 -5.4,11.25 -1.35,4.051 -1.8,8.769 -1.8,13.719 0,5.851 0.9,11.25 2.7,16.429 1.8,5.172 4.05,9.903 7.2,13.95 2.7,3.82 6.08,6.972 10.13,9.222 3.82,2.25 7.87,3.367 12.37,3.367 3.83,0 7.65,-0.668 11.7,-2.019 3.6,-1.348 6.98,-3.598 9.9,-6.301 2.93,-2.93 5.4,-6.519 7.2,-10.566 1.8,-4.5 2.7,-9.684 2.7,-15.532"
         style="fill:#000000;fill-opacity:1;fill-rule:nonzero;stroke:none"
         id="path116"
         inkscape:connector-curvature="0" /><path
         d="m 4101.84,242.281 c 0,0.219 -0.22,1.129 -0.67,2.481 -0.45,1.117 -0.9,1.797 -0.9,2.238 -0.9,2.031 -1.58,4.281 -2.03,6.531 -0.67,2.25 -1.12,4.719 -1.35,7.649 -0.45,2.699 -0.67,6.082 -0.67,9.898 -0.23,3.602 -0.23,8.102 -0.23,13.281 v 4.051 l 0.45,6.289 c 0,2.262 0,4.512 0.23,6.762 0,2.25 0.22,4.269 0.45,5.617 0.22,2.481 0.45,4.731 0.67,6.75 0,1.801 0.45,4.051 0.9,6.531 0.23,1.571 0.45,3.153 0.9,4.5 0,1.352 0.23,2.7 0.23,3.821 0,0.898 -0.68,1.8 -1.58,3.148 -1.35,1.133 -2.7,2.25 -4.05,3.152 -1.35,0.45 -2.7,1.129 -4.5,1.579 -1.8,0.441 -2.7,0.671 -3.15,0.671 -0.9,0 -1.8,-0.23 -2.7,-0.449 -1.35,-0.453 -2.25,-0.902 -2.7,-1.801 -0.9,-1.128 -1.35,-2.48 -1.8,-4.269 -0.45,-1.801 -0.45,-4.961 -0.45,-9.461 v -4.051 c 0,-2.469 0.23,-5.39 0.23,-8.551 0,-3.589 -0.23,-7.418 -0.23,-11.468 0,-4.27 -0.22,-8.328 -0.22,-12.379 -0.23,-3.59 -0.9,-7.422 -2.03,-11.25 -1.12,-4.051 -2.7,-7.871 -4.5,-11.25 -2.25,-3.371 -4.72,-6.071 -7.65,-8.09 -3.15,-2.25 -6.75,-3.383 -10.8,-3.383 -3.15,0 -5.85,0.684 -8.1,2.25 -2.7,1.352 -4.72,3.383 -6.3,6.082 -1.8,2.469 -2.92,5.399 -3.82,8.988 -0.9,3.383 -1.35,6.981 -1.35,11.032 0,0.679 0,2.25 0.22,4.949 v 16.883 c 0,2.699 0.23,4.5 0.23,5.398 0,1.352 0,3.371 0.45,6.301 l 0.9,8.32 0.67,3.828 c 0,1.352 0.23,3.153 0.23,5.403 0,1.797 -0.9,3.59 -2.7,5.386 -1.8,1.813 -4.28,2.704 -7.2,2.704 -2.93,0 -6.98,-1.793 -11.93,-5.172 0.23,-1.801 0.45,-4.051 0.9,-6.75 0.45,-2.918 0.68,-5.852 0.68,-8.551 0,-1.801 -0.23,-4.5 -0.23,-7.879 0,-3.59 -0.22,-6.969 -0.22,-10.57 -0.23,-3.602 -0.23,-6.969 -0.23,-9.668 -0.22,-3.153 -0.22,-4.961 -0.22,-5.852 0,-7.199 0.67,-13.73 2.02,-19.351 1.13,-5.629 3.15,-10.348 6.08,-14.18 2.7,-4.051 6.52,-6.969 11.47,-8.77 4.5,-2.25 10.35,-3.16 17.55,-3.16 3.38,0 7.65,0.91 12.6,2.699 4.95,1.801 9.23,4.961 13.05,9.903 1.58,-6.289 3.6,-10.789 5.85,-13.039 2.25,-2.481 4.95,-3.832 8.1,-3.832 2.48,0 4.73,0.898 6.75,2.25 1.8,1.351 2.7,3.148 2.7,5.851"
         style="fill:#000000;fill-opacity:1;fill-rule:nonzero;stroke:none"
         id="path118"
         inkscape:connector-curvature="0" /><path
         d="m 4197.92,250.379 c 0,1.133 -0.68,2.25 -1.58,3.371 -0.9,0.91 -2.25,1.352 -3.82,1.352 -2.03,0 -3.38,-0.442 -4.28,-1.352 -0.9,-0.891 -1.57,-2.02 -2.02,-3.141 -0.45,-0.679 -0.68,-1.347 -1.13,-1.8 -0.45,-0.457 -0.67,-0.899 -0.67,-0.899 -1.8,-1.582 -4.05,-2.262 -6.75,-2.262 -4.05,0 -7.2,1.813 -9.68,5.403 -2.7,3.609 -3.82,9.679 -3.82,18.23 0,6.969 0,14.168 0.45,21.367 0.22,6.981 0.67,14.633 1.12,22.731 1.13,0 2.7,0.23 4.5,0.449 l 4.95,0.453 c 4.05,0.449 7.65,1.129 10.8,2.028 2.7,0.671 4.95,1.57 7.2,2.703 2.25,0.886 3.38,2.468 3.38,4.269 0,1.348 -0.68,2.25 -1.58,2.699 -1.35,0.45 -2.47,0.68 -3.6,1.122 -0.67,0 -1.57,0 -2.7,0.457 l -4.5,0.453 h -17.55 c 0,0.898 0.23,2.25 0.45,4.269 l 0.9,6.297 0.9,6.75 c 0,2.25 0.23,4.051 0.68,5.621 l 0.67,4.051 c 0.23,1.129 0.45,2.48 0.45,3.828 0,0.902 -0.67,1.801 -1.8,2.934 -1.12,0.898 -2.47,1.789 -3.82,2.699 -1.58,0.668 -3.15,1.348 -4.73,2.019 -1.8,0.45 -3.37,0.899 -4.27,0.899 -1.8,0 -3.38,-0.219 -4.73,-0.668 -1.8,-0.461 -2.92,-1.133 -3.6,-1.813 -0.22,-0.218 -0.45,-0.668 -0.67,-1.347 -0.45,-0.672 -0.45,-1.352 -0.45,-2.02 0,-0.902 -0.23,-2.922 -0.23,-6.07 0,-3.16 -0.22,-6.75 -0.22,-10.359 -0.23,-3.59 -0.23,-7.192 -0.23,-10.34 -0.22,-3.614 -0.22,-5.852 -0.22,-6.981 -0.9,0 -2.48,-0.222 -4.28,-0.222 l -5.85,-0.457 c -2.25,0 -4.27,-0.223 -6.3,-0.223 -2.02,-0.219 -3.6,-0.219 -4.72,-0.219 -2.25,0 -3.83,-0.449 -5.18,-0.91 -1.35,-0.672 -1.8,-1.789 -1.8,-3.371 0,-3.149 0.68,-5.848 2.48,-8.551 1.57,-2.699 3.82,-4.047 6.97,-4.047 2.25,0 4.95,0.219 8.1,0.68 l 10.13,0.891 c -0.23,-7.422 -0.23,-14.172 -0.23,-20.473 -0.22,-6.301 -0.22,-12.598 -0.22,-18.68 0,-4.488 0.22,-8.769 1.12,-13.039 0.68,-4.5 2.03,-8.551 4.05,-12.16 2.03,-3.59 4.95,-6.289 8.55,-8.551 3.38,-2.238 7.88,-3.371 13.73,-3.371 2.25,0 4.95,0.453 8.32,1.133 3.15,0.668 6.08,1.801 8.78,3.148 2.02,1.121 4.05,2.7 5.85,4.942 1.8,1.808 2.7,3.828 2.7,6.078"
         style="fill:#000000;fill-opacity:1;fill-rule:nonzero;stroke:none"
         id="path120"
         inkscape:connector-curvature="0" /><path
         d="m 4302.09,330.93 c -0.22,1.351 -1.35,2.922 -3.37,4.281 -2.03,1.117 -3.83,1.789 -5.4,1.789 h -3.83 l -1.57,-0.441 c -0.68,-0.231 -1.35,-0.45 -1.8,-0.68 -1.8,-1.348 -3.15,-4.5 -4.5,-9 -4.5,4.73 -9,7.883 -13.5,9.23 -4.95,1.121 -9.68,1.801 -14.4,1.801 -5.85,0 -11.48,-2.031 -16.65,-5.629 -5.18,-3.832 -9.68,-8.769 -13.5,-15.082 -3.83,-6.289 -6.75,-13.488 -9,-21.59 -2.25,-8.328 -3.15,-16.879 -3.15,-25.879 0,-4.949 0.67,-9.671 2.02,-14.179 1.35,-4.723 3.38,-8.77 6.53,-12.141 2.7,-3.609 6.52,-6.531 11.02,-8.551 4.5,-2.031 9.9,-3.16 16.2,-3.16 6.3,0 12.38,1.352 18,3.61 5.4,2.25 10.58,6.519 15.3,12.82 v -20.93 c 0,-9.219 -2.47,-16.418 -6.97,-21.59 -4.95,-5.179 -11.7,-7.879 -20.7,-7.879 -4.28,0 -8.55,0.899 -13.05,2.25 -4.5,1.579 -8.55,3.149 -12.15,4.95 -1.58,0.898 -2.93,1.351 -4.28,1.8 -1.35,0.45 -2.92,0.668 -4.27,0.668 -2.03,0 -3.6,-0.668 -4.73,-2.238 -1.35,-1.351 -1.8,-3.601 -1.8,-6.308 0,-2.25 0.9,-4.051 2.93,-5.622 1.8,-1.351 3.82,-2.699 6.07,-3.601 2.25,-0.899 4.95,-1.578 8.1,-2.469 3.15,-0.68 6.3,-1.351 9.68,-1.808 3.15,-0.454 6.52,-0.672 9.67,-0.891 3.15,-0.231 5.63,-0.449 7.88,-0.449 13.05,0 23.17,3.367 29.92,10.117 6.75,6.75 10.13,16.199 10.13,28.351 v 7.879 c 0,4.27 0.22,9 0.45,14.852 l 0.45,18.437 0.45,18.012 c 0,5.621 0.22,10.34 0.45,14.391 v 6.758 c 0,4.492 0.22,9 1.12,13.953 0.68,4.949 1.35,9.668 2.25,14.168 z m -21.37,-39.602 c 0,-5.848 -0.9,-11.699 -2.25,-17.316 -1.58,-5.633 -3.6,-10.582 -6.3,-14.852 -2.7,-4.5 -5.85,-8.109 -9.45,-10.808 -3.83,-2.704 -7.88,-4.051 -12.15,-4.051 -3.6,0 -6.53,0.679 -9,2.027 -2.48,1.352 -4.5,3.152 -5.85,5.402 -1.8,2.25 -2.93,4.731 -3.6,7.872 -0.9,2.929 -1.13,6.078 -1.13,9.457 0,8.543 0.68,15.972 2.48,22.5 1.57,6.519 3.82,12.152 6.52,16.652 2.7,4.269 5.63,7.641 9.23,9.898 3.15,2.25 6.52,3.371 10.12,3.371 6.53,0 11.7,-2.929 15.53,-8.332 3.82,-5.617 5.85,-12.82 5.85,-21.82"
         style="fill:#000000;fill-opacity:1;fill-rule:nonzero;stroke:none"
         id="path122"
         inkscape:connector-curvature="0" /><path
         d="m 4409.19,331.148 c 0,1.352 -0.67,2.704 -1.57,4.063 -1.13,0.898 -2.48,1.789 -4.05,2.699 -1.8,0.899 -3.38,1.57 -5.18,2.02 -2.02,0.449 -3.82,0.679 -5.17,0.679 -3.6,0 -7.2,-0.91 -11.03,-2.699 -4.05,-1.801 -7.87,-4.058 -11.7,-7.199 -4.05,-3.383 -7.87,-7.43 -11.47,-12.16 -3.83,-4.942 -7.2,-10.34 -9.9,-16.192 0.45,5.172 0.67,9.903 1.12,13.95 0,3.82 0.23,7.421 0.23,10.57 0,2.922 -1.13,5.18 -2.93,6.973 -2.02,1.578 -4.27,2.476 -6.75,2.476 -2.47,0 -4.5,-0.898 -6.3,-2.25 -2.02,-1.578 -3.37,-3.367 -4.05,-5.398 -0.22,-0.668 -0.45,-2.25 -0.45,-4.95 -0.22,-2.699 -0.45,-6.07 -0.45,-9.671 l -0.45,-12.598 v -12.832 c 0,-5.848 0,-11.469 0.45,-17.098 l 0.45,-17.101 c 0,-2.7 0.45,-5.399 0.9,-8.102 0.23,-2.699 1.13,-5.18 2.48,-7.199 1.8,-2.918 4.95,-4.5 9.45,-4.5 3.15,0 5.62,0.902 7.65,2.473 1.8,1.808 2.92,3.828 2.92,6.527 0,4.051 -0.45,8.551 -1.35,13.73 -1.12,4.942 -1.57,9.903 -1.57,14.84 0,1.813 0.45,4.281 1.57,7.199 1.13,2.704 2.48,5.403 4.28,8.563 1.57,2.918 3.37,6.07 5.62,9.437 2.03,3.161 4.05,6.082 5.85,9.231 0.9,1.582 2.48,3.371 4.28,5.633 1.8,2.019 3.82,4.047 6.07,5.847 2.25,1.789 4.95,3.141 7.65,4.493 2.48,1.359 5.18,2.027 7.88,2.027 0.67,0 1.8,-0.449 3.37,-0.899 0.45,-0.218 1.35,-0.218 2.7,-0.218 1.13,-0.231 1.8,-0.231 2.25,-0.231 1.58,0 3.15,0.899 4.95,2.699 1.35,1.801 2.25,3.379 2.25,5.168"
         style="fill:#000000;fill-opacity:1;fill-rule:nonzero;stroke:none"
         id="path124"
         inkscape:connector-curvature="0" /><path
         d="m 4520.34,287.059 c 0,7.871 -1.35,15.07 -3.6,21.589 -2.47,6.313 -5.85,11.93 -10.35,16.43 -4.5,4.5 -9.9,7.883 -16.2,10.57 -6.52,2.262 -13.72,3.614 -21.82,3.614 -6.53,0 -12.6,-1.582 -18,-4.5 -5.63,-3.153 -10.58,-7.434 -14.63,-12.602 -4.05,-5.398 -7.2,-11.48 -9.45,-18.23 -2.47,-6.969 -3.6,-14.168 -3.6,-21.828 0,-7.641 1.13,-14.391 3.6,-20.692 2.25,-6.308 5.4,-11.48 9.68,-15.762 4.05,-4.5 9,-8.089 14.62,-10.339 5.63,-2.258 11.7,-3.61 18.45,-3.61 7.43,0 14.4,1.582 20.7,4.512 6.3,2.699 11.7,6.738 16.2,11.918 4.5,4.949 7.88,11.031 10.58,17.781 2.47,6.52 3.82,13.488 3.82,21.149 z m -15.75,2.921 c 0,-6.531 -0.9,-12.378 -2.7,-17.781 -2.02,-5.398 -4.5,-9.898 -7.65,-13.488 -3.15,-4.051 -6.97,-6.981 -11.25,-9.012 -4.27,-2.238 -8.77,-3.14 -13.27,-3.14 -4.95,0 -9.23,0.902 -12.83,2.703 -3.6,1.566 -6.75,4.047 -9,7.199 -2.47,3.141 -4.27,6.75 -5.4,11.25 -1.35,4.051 -1.8,8.769 -1.8,13.719 0,5.851 0.9,11.25 2.7,16.429 1.8,5.172 4.05,9.903 7.2,13.95 2.7,3.82 6.08,6.972 10.13,9.222 3.82,2.25 7.87,3.367 12.37,3.367 3.83,0 7.65,-0.668 11.7,-2.019 3.6,-1.348 6.98,-3.598 9.9,-6.301 2.93,-2.93 5.4,-6.519 7.2,-10.566 1.8,-4.5 2.7,-9.684 2.7,-15.532"
         style="fill:#000000;fill-opacity:1;fill-rule:nonzero;stroke:none"
         id="path126"
         inkscape:connector-curvature="0" /><path
         d="m 4627.44,242.281 c 0,0.219 -0.22,1.129 -0.67,2.481 -0.45,1.117 -0.9,1.797 -0.9,2.238 -0.9,2.031 -1.58,4.281 -2.03,6.531 -0.67,2.25 -1.12,4.719 -1.35,7.649 -0.45,2.699 -0.67,6.082 -0.67,9.898 -0.23,3.602 -0.23,8.102 -0.23,13.281 v 4.051 l 0.45,6.289 c 0,2.262 0,4.512 0.23,6.762 0,2.25 0.22,4.269 0.45,5.617 0.22,2.481 0.45,4.731 0.67,6.75 0,1.801 0.45,4.051 0.9,6.531 0.23,1.571 0.45,3.153 0.9,4.5 0,1.352 0.23,2.7 0.23,3.821 0,0.898 -0.68,1.8 -1.58,3.148 -1.35,1.133 -2.7,2.25 -4.05,3.152 -1.35,0.45 -2.7,1.129 -4.5,1.579 -1.8,0.441 -2.7,0.671 -3.15,0.671 -0.9,0 -1.8,-0.23 -2.7,-0.449 -1.35,-0.453 -2.25,-0.902 -2.7,-1.801 -0.9,-1.128 -1.35,-2.48 -1.8,-4.269 -0.45,-1.801 -0.45,-4.961 -0.45,-9.461 v -4.051 c 0,-2.469 0.23,-5.39 0.23,-8.551 0,-3.589 -0.23,-7.418 -0.23,-11.468 0,-4.27 -0.22,-8.328 -0.22,-12.379 -0.23,-3.59 -0.9,-7.422 -2.03,-11.25 -1.12,-4.051 -2.7,-7.871 -4.5,-11.25 -2.25,-3.371 -4.72,-6.071 -7.65,-8.09 -3.15,-2.25 -6.75,-3.383 -10.8,-3.383 -3.15,0 -5.85,0.684 -8.1,2.25 -2.7,1.352 -4.72,3.383 -6.3,6.082 -1.8,2.469 -2.92,5.399 -3.82,8.988 -0.9,3.383 -1.35,6.981 -1.35,11.032 0,0.679 0,2.25 0.22,4.949 v 16.883 c 0,2.699 0.23,4.5 0.23,5.398 0,1.352 0,3.371 0.45,6.301 l 0.9,8.32 0.67,3.828 c 0,1.352 0.23,3.153 0.23,5.403 0,1.797 -0.9,3.59 -2.7,5.386 -1.8,1.813 -4.28,2.704 -7.2,2.704 -2.93,0 -6.98,-1.793 -11.93,-5.172 0.23,-1.801 0.45,-4.051 0.9,-6.75 0.45,-2.918 0.68,-5.852 0.68,-8.551 0,-1.801 -0.23,-4.5 -0.23,-7.879 0,-3.59 -0.22,-6.969 -0.22,-10.57 -0.23,-3.602 -0.23,-6.969 -0.23,-9.668 -0.22,-3.153 -0.22,-4.961 -0.22,-5.852 0,-7.199 0.67,-13.73 2.02,-19.351 1.13,-5.629 3.15,-10.348 6.08,-14.18 2.7,-4.051 6.52,-6.969 11.47,-8.77 4.5,-2.25 10.35,-3.16 17.55,-3.16 3.38,0 7.65,0.91 12.6,2.699 4.95,1.801 9.23,4.961 13.05,9.903 1.58,-6.289 3.6,-10.789 5.85,-13.039 2.25,-2.481 4.95,-3.832 8.1,-3.832 2.48,0 4.73,0.898 6.75,2.25 1.8,1.351 2.7,3.148 2.7,5.851"
         style="fill:#000000;fill-opacity:1;fill-rule:nonzero;stroke:none"
         id="path128"
         inkscape:connector-curvature="0" /><path
         d="m 4754.12,297.18 c 0,5.851 -1.13,11.25 -2.93,16.199 -2.25,4.949 -5.17,9.223 -9,12.832 -3.82,3.59 -8.32,6.519 -13.72,8.769 -5.4,2.02 -11.7,3.149 -18.45,3.149 -6.3,0 -12.83,-1.57 -19.13,-4.5 -6.75,-3.149 -13.05,-7.879 -19.35,-14.617 v 8.09 c -0.22,1.808 -0.45,3.378 -0.45,4.726 -0.22,0.672 -0.45,1.352 -0.45,1.801 l -1.12,1.801 c -1.13,1.129 -2.25,2.25 -3.38,3.379 -1.35,0.89 -2.7,1.351 -4.05,1.351 -3.6,0 -6.3,-0.461 -8.55,-1.351 -2.47,-1.129 -3.6,-2.93 -3.6,-5.399 0,-1.801 0.23,-3.609 0.68,-4.961 l 0.67,-2.699 0.45,-2.469 c 0.45,-3.601 0.68,-6.972 1.13,-10.133 0.22,-3.148 0.45,-6.519 0.45,-9.898 0,-8.988 -0.23,-17.988 -0.23,-26.539 l -0.45,-26.781 v -13.5 c -0.22,-4.95 -0.22,-9.668 -0.22,-14.399 v -21.383 c 0,-0.886 0.22,-2.238 0.67,-4.046 0.23,-1.34 0.9,-2.922 2.03,-4.5 0.9,-1.122 2.02,-2.243 3.15,-3.372 0.9,-0.902 2.25,-1.57 4.05,-1.57 3.6,0 6.3,1.57 7.87,4.27 1.58,2.929 2.48,6.07 2.48,9.218 -0.45,1.352 -0.68,2.262 -0.68,3.161 l -0.67,3.589 c -0.23,0.911 -0.23,1.801 -0.23,2.704 l -0.45,2.929 v 5.399 c -0.22,2.48 -0.22,5.179 -0.22,8.332 0,3.136 -0.23,6.289 -0.23,9.898 v 10.801 c 5.63,-3.832 11.25,-6.531 16.88,-8.102 5.4,-1.8 10.57,-2.699 15.3,-2.699 9,0 16.87,1.789 23.62,5.399 6.3,3.589 11.7,8.55 15.98,14.402 4.05,5.84 7.2,12.148 9.22,19.348 1.8,7.203 2.93,14.171 2.93,21.371 z m -20.7,2.25 c 0,-7.649 -0.68,-14.399 -2.03,-20.469 -1.35,-6.301 -3.37,-11.699 -5.85,-16.199 -2.7,-4.512 -5.85,-8.102 -9.45,-10.364 -3.6,-2.699 -7.87,-3.82 -12.37,-3.82 -3.15,0 -6.53,0.453 -10.13,1.582 -3.82,0.891 -7.2,2.238 -10.35,4.051 -3.37,1.801 -6.07,4.039 -8.1,6.738 -2.25,2.481 -3.37,5.403 -3.37,8.551 v 7.43 c 0,4.281 0,7.871 0.22,10.57 0,2.48 0.45,4.73 1.35,6.98 0.9,3.149 2.7,6.75 5.85,10.348 2.93,3.602 6.3,6.981 10.35,10.133 4.05,2.918 8.33,5.398 13.05,7.641 4.5,1.796 8.78,2.929 13.05,2.929 3.6,0 6.53,-0.902 9,-2.472 2.25,-1.809 4.05,-4.047 5.4,-6.75 1.35,-2.7 2.25,-5.399 2.7,-8.547 0.45,-3.16 0.68,-5.864 0.68,-8.332"
         style="fill:#000000;fill-opacity:1;fill-rule:nonzero;stroke:none"
         id="path130"
         inkscape:connector-curvature="0" /><path
         d="m 4813.97,304.16 c 0,2.25 -0.23,5.84 -0.45,10.801 -0.23,4.719 -0.68,10.117 -1.13,16.187 l -2.02,19.582 c -0.9,6.75 -2.03,13.5 -3.38,20.25 -1.35,5.629 -2.7,10.801 -4.05,15.532 -1.57,4.718 -3.37,8.769 -5.17,12.367 -1.8,3.371 -3.83,6.07 -5.85,8.101 -2.25,1.79 -4.5,2.918 -6.75,2.918 -3.38,0 -6.08,-1.128 -7.88,-3.136 -2.02,-2.262 -2.92,-4.961 -2.92,-8.332 0,-2.25 0.67,-4.27 2.25,-6.071 1.35,-2.031 2.92,-3.828 4.27,-5.179 2.93,-3.371 5.63,-7.2 7.88,-11.469 2.25,-4.5 3.6,-9 4.5,-13.281 l 4.05,-25.43 c 0.9,-8.77 1.57,-17.32 1.57,-25.871 0,-3.828 -0.22,-8.32 -0.45,-13.731 -0.45,-5.398 -0.9,-11.25 -1.35,-17.539 -0.67,-6.308 -1.35,-12.828 -2.25,-19.578 -0.9,-6.75 -2.02,-13.281 -3.37,-19.351 -1.35,-6.071 -2.93,-11.7 -4.73,-17.102 -1.8,-5.18 -3.82,-9.449 -6.07,-12.816 -0.45,-2.032 -0.68,-4.282 -0.68,-6.532 0,-5.402 2.03,-8.101 6.53,-8.101 1.12,0 2.25,0.449 3.6,1.121 1.57,1.129 3.15,3.148 4.95,6.309 1.8,3.152 3.37,6.742 4.95,10.351 1.35,4.051 2.7,7.871 4.05,11.469 1.12,3.832 2.02,6.973 2.47,9.23 2.25,11.25 4.28,22.719 5.63,34.641 1.12,11.711 1.8,23.18 1.8,34.66"
         style="fill:#000000;fill-opacity:1;fill-rule:nonzero;stroke:none"
         id="path132"
         inkscape:connector-curvature="0" /></g></g></svg>