<?xml version="1.0" encoding="UTF-8" standalone="no"?>
<!-- Created with Inkscape (http://www.inkscape.org/) -->

<svg
   xmlns:dc="http://purl.org/dc/elements/1.1/"
   xmlns:cc="http://creativecommons.org/ns#"
   xmlns:rdf="http://www.w3.org/1999/02/22-rdf-syntax-ns#"
   xmlns:svg="http://www.w3.org/2000/svg"
   xmlns="http://www.w3.org/2000/svg"
   xmlns:sodipodi="http://sodipodi.sourceforge.net/DTD/sodipodi-0.dtd"
   xmlns:inkscape="http://www.inkscape.org/namespaces/inkscape"
   id="svg2"
   version="1.1"
   inkscape:version="0.91 r13725"
   xml:space="preserve"
   width="610.30463"
   height="555.15845"
   viewBox="0 0 610.30463 555.15845"
   sodipodi:docname="gamma.svg"
   inkscape:export-filename="/Users/grzeg/Documents/filogenetyka/wyklady/pics-modele/gamma.png"
   inkscape:export-xdpi="59.010181"
   inkscape:export-ydpi="59.010181"><metadata
     id="metadata8"><rdf:RDF><cc:Work
         rdf:about=""><dc:format>image/svg+xml</dc:format><dc:type
           rdf:resource="http://purl.org/dc/dcmitype/StillImage" /><dc:title></dc:title></cc:Work></rdf:RDF></metadata><defs
     id="defs6"><clipPath
       clipPathUnits="userSpaceOnUse"
       id="clipPath18"><path
         d="m 59.04,73.44 414.72,0 0,371.52 -414.72,0 0,-371.52 z"
         id="path20"
         inkscape:connector-curvature="0" /></clipPath><clipPath
       clipPathUnits="userSpaceOnUse"
       id="clipPath138"><path
         d="m 59.04,73.44 414.72,0 0,371.52 -414.72,0 0,-371.52 z"
         id="path140"
         inkscape:connector-curvature="0" /></clipPath></defs><sodipodi:namedview
     pagecolor="#ffffff"
     bordercolor="#666666"
     borderopacity="1"
     objecttolerance="10"
     gridtolerance="10"
     guidetolerance="10"
     inkscape:pageopacity="0"
     inkscape:pageshadow="2"
     inkscape:window-width="1253"
     inkscape:window-height="697"
     id="namedview4"
     showgrid="false"
     fit-margin-top="10"
     fit-margin-right="10"
     fit-margin-left="10"
     fit-margin-bottom="10"
     inkscape:zoom="1.0595378"
     inkscape:cx="347.47152"
     inkscape:cy="377.80005"
     inkscape:window-x="0"
     inkscape:window-y="0"
     inkscape:window-maximized="0"
     inkscape:current-layer="g104" /><g
     id="g10"
     inkscape:groupmode="layer"
     inkscape:label="gamma"
     transform="matrix(1.25,0,0,-1.25,-4.253788,578.55844)"><g
       id="g12" /><g
       id="g14"><g
         id="g16"
         clip-path="url(#clipPath18)"><path
           d="m 63.06,504 0.14,-9.79 1.39,-58.2 1.39,-39.9 1.38,-29.59 1.39,-23.1 1.39,-18.7 1.38,-15.55 1.39,-13.22 1.39,-11.42 1.38,-9.99 1.39,-8.86 1.39,-7.92 1.39,-7.14 1.38,-6.49 1.39,-5.92 1.39,-5.45 1.38,-5.02 1.39,-4.66 1.39,-4.34 1.38,-4.05 1.39,-3.79 1.39,-3.57 1.39,-3.36 1.38,-3.18 1.39,-3 1.39,-2.86 1.38,-2.71 1.39,-2.58 1.39,-2.46 1.38,-2.35 1.39,-2.25 1.39,-2.16 1.39,-2.06 1.38,-1.99 1.39,-1.91 1.39,-1.83 1.38,-1.77 1.39,-1.71 1.39,-1.65 1.38,-1.59 1.39,-1.54 1.39,-1.49 1.39,-1.44 1.38,-1.4 1.39,-1.35 1.39,-1.32 1.38,-1.27 1.39,-1.24 1.39,-1.21 1.39,-1.17 1.38,-1.14 1.39,-1.11 1.39,-1.08 1.38,-1.06 1.39,-1.03 1.39,-1 1.38,-0.98 1.39,-0.95 1.39,-0.94 1.39,-0.91 1.38,-0.89 1.39,-0.87 1.39,-0.85 1.38,-0.83 1.39,-0.82 1.39,-0.79 1.38,-0.78 1.39,-0.77 1.39,-0.75 1.39,-0.73 1.38,-0.72 1.39,-0.71 1.39,-0.69 1.38,-0.68 1.39,-0.66 1.39,-0.66 1.38,-0.64 1.39,-0.63 1.39,-0.62 1.39,-0.6 1.38,-0.6 1.39,-0.59 1.39,-0.57 1.38,-0.57 1.39,-0.55 1.39,-0.55 1.39,-0.54 1.38,-0.53 1.39,-0.52 1.39,-0.51 1.38,-0.51 1.39,-0.49 1.39,-0.49 1.38,-0.48 1.39,-0.47 1.39,-0.47 1.39,-0.46 1.38,-0.45 1.39,-0.45 1.39,-0.44 1.38,-0.43 1.39,-0.42 1.39,-0.42 1.38,-0.42 1.39,-0.41 1.39,-0.4 1.39,-0.4 1.38,-0.39 1.39,-0.38 1.39,-0.38 1.38,-0.38 1.39,-0.37 1.39,-0.36 1.38,-0.36 1.39,-0.36 1.39,-0.35 1.39,-0.35 1.38,-0.34 1.39,-0.34 1.39,-0.33 1.38,-0.33 1.39,-0.32 1.39,-0.32 1.38,-0.32 1.39,-0.31 1.39,-0.31 1.39,-0.31 1.38,-0.3 1.39,-0.3 1.39,-0.29 1.38,-0.29 1.39,-0.29 1.39,-0.28 1.39,-0.28 1.38,-0.28 1.39,-0.27 1.39,-0.27 1.38,-0.27 1.39,-0.27 1.39,-0.26 1.38,-0.26 1.39,-0.25 1.39,-0.26 1.39,-0.24 1.38,-0.25 1.39,-0.25 1.39,-0.24 1.38,-0.24 1.39,-0.23 1.39,-0.24 1.38,-0.23 1.39,-0.23 1.39,-0.22 1.39,-0.23 1.38,-0.22 1.39,-0.22 1.39,-0.21 1.38,-0.22 1.39,-0.21 1.39,-0.21 1.38,-0.21 1.39,-0.21 1.39,-0.2 1.39,-0.2 1.38,-0.2 1.39,-0.2 1.39,-0.19 1.38,-0.2 1.39,-0.19 1.39,-0.19 1.39,-0.18 1.38,-0.19 1.39,-0.18 1.39,-0.19 1.38,-0.18 1.39,-0.18 1.39,-0.17 1.38,-0.18 1.39,-0.17 1.39,-0.17 1.39,-0.17 1.38,-0.17 1.39,-0.17 1.39,-0.16 1.38,-0.17 1.39,-0.16 1.39,-0.16 1.38,-0.16 1.39,-0.16 1.39,-0.15 1.39,-0.16 1.38,-0.15 1.39,-0.15 1.39,-0.15 1.38,-0.15 1.39,-0.15 1.39,-0.14 1.38,-0.15 1.39,-0.14 1.39,-0.14 1.39,-0.15 1.38,-0.14 1.39,-0.13 1.39,-0.14 1.38,-0.14 1.39,-0.13 1.39,-0.13 1.38,-0.14 1.39,-0.13 1.39,-0.13 1.39,-0.13 1.38,-0.12 1.39,-0.13 1.39,-0.13 1.38,-0.12 1.39,-0.12 1.39,-0.13 1.39,-0.12 1.38,-0.12 1.39,-0.12 1.39,-0.11 1.38,-0.12 1.39,-0.12 1.39,-0.11 1.38,-0.12 1.39,-0.11 1.39,-0.11 1.39,-0.11 1.38,-0.11 1.39,-0.11 1.39,-0.11 1.38,-0.11 1.39,-0.1 1.39,-0.11 1.38,-0.1 1.39,-0.11 1.39,-0.1 1.39,-0.1 1.38,-0.1 1.39,-0.11 1.39,-0.1 1.38,-0.09 1.39,-0.1 1.39,-0.1 1.38,-0.1 1.39,-0.09 1.39,-0.1 1.39,-0.09 1.38,-0.09 1.39,-0.1 1.39,-0.09 1.38,-0.09 1.39,-0.09 1.39,-0.09 1.39,-0.09 1.38,-0.09 1.39,-0.08 1.39,-0.09 1.38,-0.09 1.39,-0.08 1.39,-0.09 1.38,-0.08 1.39,-0.08 1.39,-0.09 1.39,-0.08 1.38,-0.08 1.39,-0.08 1.39,-0.08 1.38,-0.08 1.39,-0.08 1.39,-0.08 1.38,-0.07 1.39,-0.08 1.39,-0.08 1.39,-0.07 1.38,-0.08 1.39,-0.07 1.39,-0.08 1.38,-0.07 1.39,-0.07 1.39,-0.08 1.38,-0.07 1.39,-0.07 1.39,-0.07 1.39,-0.07 1.38,-0.07 1.39,-0.07 1.39,-0.07 1.38,-0.07 1.39,-0.06 1.39,-0.07 1.38,-0.07 1.39,-0.06 1.39,-0.07 1.39,-0.06 1.38,-0.07 1.39,-0.06"
           style="fill:none;stroke:#000000;stroke-width:1.5;stroke-linecap:round;stroke-linejoin:round;stroke-miterlimit:10;stroke-dasharray:none;stroke-opacity:1"
           id="path22"
           inkscape:connector-curvature="0" /></g></g><g
       id="g24"><path
         d="m 59.04,73.44 414.72,0"
         style="fill:none;stroke:#000000;stroke-width:0.75;stroke-linecap:round;stroke-linejoin:round;stroke-miterlimit:10;stroke-dasharray:none;stroke-opacity:1"
         id="path26"
         inkscape:connector-curvature="0" /><path
         d="m 59.04,73.44 0,-7.2"
         style="fill:none;stroke:#000000;stroke-width:0.75;stroke-linecap:round;stroke-linejoin:round;stroke-miterlimit:10;stroke-dasharray:none;stroke-opacity:1"
         id="path28"
         inkscape:connector-curvature="0" /><path
         d="m 128.16,73.44 0,-7.2"
         style="fill:none;stroke:#000000;stroke-width:0.75;stroke-linecap:round;stroke-linejoin:round;stroke-miterlimit:10;stroke-dasharray:none;stroke-opacity:1"
         id="path30"
         inkscape:connector-curvature="0" /><path
         d="m 197.28,73.44 0,-7.2"
         style="fill:none;stroke:#000000;stroke-width:0.75;stroke-linecap:round;stroke-linejoin:round;stroke-miterlimit:10;stroke-dasharray:none;stroke-opacity:1"
         id="path32"
         inkscape:connector-curvature="0" /><path
         d="m 266.4,73.44 0,-7.2"
         style="fill:none;stroke:#000000;stroke-width:0.75;stroke-linecap:round;stroke-linejoin:round;stroke-miterlimit:10;stroke-dasharray:none;stroke-opacity:1"
         id="path34"
         inkscape:connector-curvature="0" /><path
         d="m 335.52,73.44 0,-7.2"
         style="fill:none;stroke:#000000;stroke-width:0.75;stroke-linecap:round;stroke-linejoin:round;stroke-miterlimit:10;stroke-dasharray:none;stroke-opacity:1"
         id="path36"
         inkscape:connector-curvature="0" /><path
         d="m 404.64,73.44 0,-7.2"
         style="fill:none;stroke:#000000;stroke-width:0.75;stroke-linecap:round;stroke-linejoin:round;stroke-miterlimit:10;stroke-dasharray:none;stroke-opacity:1"
         id="path38"
         inkscape:connector-curvature="0" /><path
         d="m 473.76,73.44 0,-7.2"
         style="fill:none;stroke:#000000;stroke-width:0.75;stroke-linecap:round;stroke-linejoin:round;stroke-miterlimit:10;stroke-dasharray:none;stroke-opacity:1"
         id="path40"
         inkscape:connector-curvature="0" /><text
         transform="matrix(1,0,0,-1,50.7,47.52)"
         style="font-variant:normal;font-weight:normal;font-size:16px;font-family:Helvetica;-inkscape-font-specification:Helvetica;writing-mode:lr-tb;fill:#000000;fill-opacity:1;fill-rule:nonzero;stroke:none"
         id="text42"><tspan
           x="0 6.6719999 10.008"
           y="0"
           sodipodi:role="line"
           id="tspan44">0.0</tspan></text>
<text
         transform="matrix(1,0,0,-1,119.82,47.52)"
         style="font-variant:normal;font-weight:normal;font-size:16px;font-family:Helvetica;-inkscape-font-specification:Helvetica;writing-mode:lr-tb;fill:#000000;fill-opacity:1;fill-rule:nonzero;stroke:none"
         id="text46"><tspan
           x="0 6.6719999 10.008"
           y="0"
           sodipodi:role="line"
           id="tspan48">0.5</tspan></text>
<text
         transform="matrix(1,0,0,-1,188.94,47.52)"
         style="font-variant:normal;font-weight:normal;font-size:16px;font-family:Helvetica;-inkscape-font-specification:Helvetica;writing-mode:lr-tb;fill:#000000;fill-opacity:1;fill-rule:nonzero;stroke:none"
         id="text50"><tspan
           x="0 6.6719999 10.008"
           y="0"
           sodipodi:role="line"
           id="tspan52">1.0</tspan></text>
<text
         transform="matrix(1,0,0,-1,258.06,47.52)"
         style="font-variant:normal;font-weight:normal;font-size:16px;font-family:Helvetica;-inkscape-font-specification:Helvetica;writing-mode:lr-tb;fill:#000000;fill-opacity:1;fill-rule:nonzero;stroke:none"
         id="text54"><tspan
           x="0 6.6719999 10.008"
           y="0"
           sodipodi:role="line"
           id="tspan56">1.5</tspan></text>
<text
         transform="matrix(1,0,0,-1,327.18,47.52)"
         style="font-variant:normal;font-weight:normal;font-size:16px;font-family:Helvetica;-inkscape-font-specification:Helvetica;writing-mode:lr-tb;fill:#000000;fill-opacity:1;fill-rule:nonzero;stroke:none"
         id="text58"><tspan
           x="0 6.6719999 10.008"
           y="0"
           sodipodi:role="line"
           id="tspan60">2.0</tspan></text>
<text
         transform="matrix(1,0,0,-1,396.3,47.52)"
         style="font-variant:normal;font-weight:normal;font-size:16px;font-family:Helvetica;-inkscape-font-specification:Helvetica;writing-mode:lr-tb;fill:#000000;fill-opacity:1;fill-rule:nonzero;stroke:none"
         id="text62"><tspan
           x="0 6.6719999 10.008"
           y="0"
           sodipodi:role="line"
           id="tspan64">2.5</tspan></text>
<text
         transform="matrix(1,0,0,-1,465.42,47.52)"
         style="font-variant:normal;font-weight:normal;font-size:16px;font-family:Helvetica;-inkscape-font-specification:Helvetica;writing-mode:lr-tb;fill:#000000;fill-opacity:1;fill-rule:nonzero;stroke:none"
         id="text66"><tspan
           x="0 6.6719999 10.008"
           y="0"
           sodipodi:role="line"
           id="tspan68">3.0</tspan></text>
<path
         d="m 59.04,73.44 0,371.52"
         style="fill:none;stroke:#000000;stroke-width:0.75;stroke-linecap:round;stroke-linejoin:round;stroke-miterlimit:10;stroke-dasharray:none;stroke-opacity:1"
         id="path70"
         inkscape:connector-curvature="0" /><path
         d="m 59.04,73.44 -7.2,0"
         style="fill:none;stroke:#000000;stroke-width:0.75;stroke-linecap:round;stroke-linejoin:round;stroke-miterlimit:10;stroke-dasharray:none;stroke-opacity:1"
         id="path72"
         inkscape:connector-curvature="0" /><path
         d="m 59.04,166.32 -7.2,0"
         style="fill:none;stroke:#000000;stroke-width:0.75;stroke-linecap:round;stroke-linejoin:round;stroke-miterlimit:10;stroke-dasharray:none;stroke-opacity:1"
         id="path74"
         inkscape:connector-curvature="0" /><path
         d="m 59.04,259.2 -7.2,0"
         style="fill:none;stroke:#000000;stroke-width:0.75;stroke-linecap:round;stroke-linejoin:round;stroke-miterlimit:10;stroke-dasharray:none;stroke-opacity:1"
         id="path76"
         inkscape:connector-curvature="0" /><path
         d="m 59.04,352.08 -7.2,0"
         style="fill:none;stroke:#000000;stroke-width:0.75;stroke-linecap:round;stroke-linejoin:round;stroke-miterlimit:10;stroke-dasharray:none;stroke-opacity:1"
         id="path78"
         inkscape:connector-curvature="0" /><path
         d="m 59.04,444.96 -7.2,0"
         style="fill:none;stroke:#000000;stroke-width:0.75;stroke-linecap:round;stroke-linejoin:round;stroke-miterlimit:10;stroke-dasharray:none;stroke-opacity:1"
         id="path80"
         inkscape:connector-curvature="0" /><text
         transform="matrix(0,1,1,0,41.76,65.1)"
         style="font-variant:normal;font-weight:normal;font-size:16px;font-family:Helvetica;-inkscape-font-specification:Helvetica;writing-mode:lr-tb;fill:#000000;fill-opacity:1;fill-rule:nonzero;stroke:none"
         id="text82"><tspan
           x="0 6.6719999 10.008"
           y="0"
           sodipodi:role="line"
           id="tspan84">0.0</tspan></text>
<text
         transform="matrix(0,1,1,0,41.76,157.98)"
         style="font-variant:normal;font-weight:normal;font-size:16px;font-family:Helvetica;-inkscape-font-specification:Helvetica;writing-mode:lr-tb;fill:#000000;fill-opacity:1;fill-rule:nonzero;stroke:none"
         id="text86"><tspan
           x="0 6.6719999 10.008"
           y="0"
           sodipodi:role="line"
           id="tspan88">0.5</tspan></text>
<text
         transform="matrix(0,1,1,0,41.76,250.86)"
         style="font-variant:normal;font-weight:normal;font-size:16px;font-family:Helvetica;-inkscape-font-specification:Helvetica;writing-mode:lr-tb;fill:#000000;fill-opacity:1;fill-rule:nonzero;stroke:none"
         id="text90"><tspan
           x="0 6.6719999 10.008"
           y="0"
           sodipodi:role="line"
           id="tspan92">1.0</tspan></text>
<text
         transform="matrix(0,1,1,0,41.76,343.74)"
         style="font-variant:normal;font-weight:normal;font-size:16px;font-family:Helvetica;-inkscape-font-specification:Helvetica;writing-mode:lr-tb;fill:#000000;fill-opacity:1;fill-rule:nonzero;stroke:none"
         id="text94"><tspan
           x="0 6.6719999 10.008"
           y="0"
           sodipodi:role="line"
           id="tspan96">1.5</tspan></text>
<text
         transform="matrix(0,1,1,0,41.76,436.62)"
         style="font-variant:normal;font-weight:normal;font-size:16px;font-family:Helvetica;-inkscape-font-specification:Helvetica;writing-mode:lr-tb;fill:#000000;fill-opacity:1;fill-rule:nonzero;stroke:none"
         id="text98"><tspan
           x="0 6.6719999 10.008"
           y="0"
           sodipodi:role="line"
           id="tspan100">2.0</tspan></text>
<path
         d="m 59.04,73.44 414.72,0 0,371.52 -414.72,0 0,-371.52"
         style="fill:none;stroke:#000000;stroke-width:0.75;stroke-linecap:round;stroke-linejoin:round;stroke-miterlimit:10;stroke-dasharray:none;stroke-opacity:1"
         id="path102"
         inkscape:connector-curvature="0" /></g><g
       id="g104"><text
         transform="scale(1,-1)"
         style="font-style:italic;font-variant:normal;font-weight:bold;font-stretch:normal;font-size:16px;font-family:sans-serif;-inkscape-font-specification:'sans-serif Bold Italic';writing-mode:lr-tb;fill:#000000;fill-opacity:1;fill-rule:nonzero;stroke:none"
         id="text106"
         x="264.39999"
         y="-26.720001"><tspan
           x="264.39999"
           y="-26.720001"
           id="tspan108"
           style="font-style:italic;font-variant:normal;font-weight:bold;font-stretch:normal;font-size:20px;font-family:sans-serif;-inkscape-font-specification:'sans-serif Bold Italic'">r</tspan></text>
<text
         transform="matrix(0,1,1,0,0,0)"
         style="font-style:normal;font-variant:normal;font-weight:bold;font-stretch:normal;font-size:18px;font-family:Roboto;-inkscape-font-specification:'Roboto Bold';writing-mode:lr-tb;fill:#000000;fill-opacity:1;fill-rule:nonzero;stroke:none"
         id="text110"
         x="212.7702"
         y="24.62178"><tspan
           x="212.7702"
           y="24.62178"
           id="tspan112"
           style="font-style:normal;font-variant:normal;font-weight:bold;font-stretch:normal;font-size:18px;font-family:Roboto;-inkscape-font-specification:'Roboto Bold'">Gęstość gamma</tspan></text>
<flowRoot
         xml:space="preserve"
         id="flowRoot7475"
         style="font-style:normal;font-weight:normal;font-size:15px;line-height:125%;font-family:sans-serif;letter-spacing:0px;word-spacing:0px;fill:#000000;fill-opacity:1;stroke:none;stroke-width:1px;stroke-linecap:butt;stroke-linejoin:miter;stroke-opacity:1"
         transform="matrix(0.8,0,0,-0.8,0,504)"><flowRegion
           id="flowRegion7477"><rect
             id="rect7479"
             width="1.8876156"
             height="16.988541"
             x="25.482811"
             y="286.45398" /></flowRegion><flowPara
           id="flowPara7481"></flowPara></flowRoot></g><g
       clip-path="url(#clipPath138)"
       id="g136"><path
         inkscape:connector-curvature="0"
         id="path142"
         style="fill:none;stroke:#ff0000;stroke-width:1.5;stroke-linecap:round;stroke-linejoin:round;stroke-miterlimit:10;stroke-dasharray:none;stroke-opacity:1"
         d="m 62.61,504 0.59,-68.66 1.39,-82.83 1.39,-51.01 1.38,-34.7 1.39,-25.22 1.39,-19.19 1.38,-15.12 1.39,-12.23 1.39,-10.1 1.38,-8.51 1.39,-7.25 1.39,-6.27 1.39,-5.47 1.38,-4.82 1.39,-4.28 1.39,-3.82 1.38,-3.45 1.39,-3.11 1.39,-2.84 1.38,-2.59 1.39,-2.37 1.39,-2.19 1.39,-2.02 1.38,-1.87 1.39,-1.74 1.39,-1.62 1.38,-1.52 1.39,-1.42 1.39,-1.33 1.38,-1.25 1.39,-1.18 1.39,-1.12 1.39,-1.05 1.38,-1 1.39,-0.95 1.39,-0.9 1.38,-0.86 1.39,-0.81 1.39,-0.78 1.38,-0.74 1.39,-0.71 1.39,-0.68 1.39,-0.65 1.38,-0.63 1.39,-0.6 1.39,-0.57 1.38,-0.55 1.39,-0.54 1.39,-0.51 1.39,-0.49 1.38,-0.48 1.39,-0.46 1.39,-0.44 1.38,-0.43 1.39,-0.41 1.39,-0.4 1.38,-0.39 1.39,-0.37 1.39,-0.37 1.39,-0.35 1.38,-0.34 1.39,-0.33 1.39,-0.32 1.38,-0.31 1.39,-0.31 1.39,-0.29 1.38,-0.29 1.39,-0.28 1.39,-0.27 1.39,-0.27 1.38,-0.25 1.39,-0.25 1.39,-0.25 1.38,-0.24 1.39,-0.23 1.39,-0.23 1.38,-0.22 1.39,-0.22 1.39,-0.21 1.39,-0.2 1.38,-0.2 1.39,-0.2 1.39,-0.19 1.38,-0.19 1.39,-0.19 1.39,-0.18 1.39,-0.17 1.38,-0.18 1.39,-0.17 1.39,-0.16 1.38,-0.16 1.39,-0.16 1.39,-0.16 1.38,-0.15 1.39,-0.15 1.39,-0.15 1.39,-0.14 1.38,-0.14 1.39,-0.14 1.39,-0.14 1.38,-0.13 1.39,-0.13 1.39,-0.13 1.38,-0.13 1.39,-0.12 1.39,-0.12 1.39,-0.12 1.38,-0.12 1.39,-0.12 1.39,-0.11 1.38,-0.11 1.39,-0.11 1.39,-0.11 1.38,-0.11 1.39,-0.1 1.39,-0.1 1.39,-0.11 1.38,-0.1 1.39,-0.09 1.39,-0.1 1.38,-0.1 1.39,-0.09 1.39,-0.09 1.38,-0.09 1.39,-0.09 1.39,-0.09 1.39,-0.09 1.38,-0.08 1.39,-0.09 1.39,-0.08 1.38,-0.08 1.39,-0.08 1.39,-0.08 1.39,-0.08 1.38,-0.08 1.39,-0.07 1.39,-0.08 1.38,-0.07 1.39,-0.08 1.39,-0.07 1.38,-0.07 1.39,-0.07 1.39,-0.07 1.39,-0.07 1.38,-0.07 1.39,-0.06 1.39,-0.07 1.38,-0.06 1.39,-0.07 1.39,-0.06 1.38,-0.06 1.39,-0.07 1.39,-0.06 1.39,-0.06 1.38,-0.06 1.39,-0.06 1.39,-0.06 1.38,-0.05 1.39,-0.06 1.39,-0.06 1.38,-0.05 1.39,-0.06 1.39,-0.05 1.39,-0.05 1.38,-0.06 1.39,-0.05 1.39,-0.05 1.38,-0.05 1.39,-0.05 1.39,-0.05 1.39,-0.05 1.38,-0.05 1.39,-0.05 1.39,-0.05 1.38,-0.05 1.39,-0.04 1.39,-0.05 1.38,-0.04 1.39,-0.05 1.39,-0.04 1.39,-0.05 1.38,-0.04 1.39,-0.05 1.39,-0.04 1.38,-0.04 1.39,-0.04 1.39,-0.05 1.38,-0.04 1.39,-0.04 1.39,-0.04 1.39,-0.04 1.38,-0.04 1.39,-0.04 1.39,-0.04 1.38,-0.04 1.39,-0.03 1.39,-0.04 1.38,-0.04 1.39,-0.04 1.39,-0.03 1.39,-0.04 1.38,-0.04 1.39,-0.03 1.39,-0.04 1.38,-0.03 1.39,-0.04 1.39,-0.03 1.38,-0.04 1.39,-0.03 1.39,-0.03 1.39,-0.04 1.38,-0.03 1.39,-0.03 1.39,-0.03 1.38,-0.04 1.39,-0.03 1.39,-0.03 1.39,-0.03 1.38,-0.03 1.39,-0.03 1.39,-0.03 1.38,-0.03 1.39,-0.03 1.39,-0.03 1.38,-0.03 1.39,-0.03 1.39,-0.03 1.39,-0.03 1.38,-0.03 1.39,-0.03 1.39,-0.02 1.38,-0.03 1.39,-0.03 1.39,-0.03 1.38,-0.02 1.39,-0.03 1.39,-0.03 1.39,-0.02 1.38,-0.03 1.39,-0.02 1.39,-0.03 1.38,-0.03 1.39,-0.02 1.39,-0.03 1.38,-0.02 1.39,-0.03 1.39,-0.02 1.39,-0.02 1.38,-0.03 1.39,-0.02 1.39,-0.03 1.38,-0.02 1.39,-0.02 1.39,-0.03 1.39,-0.02 1.38,-0.02 1.39,-0.03 1.39,-0.02 1.38,-0.02 1.39,-0.02 1.39,-0.03 1.38,-0.02 1.39,-0.02 1.39,-0.02 1.39,-0.02 1.38,-0.02 1.39,-0.02 1.39,-0.03 1.38,-0.02 1.39,-0.02 1.39,-0.02 1.38,-0.02 1.39,-0.02 1.39,-0.02 1.39,-0.02 1.38,-0.02 1.39,-0.02 1.39,-0.02 1.38,-0.02 1.39,-0.02 1.39,-0.02 1.38,-0.01 1.39,-0.02 1.39,-0.02 1.39,-0.02 1.38,-0.02 1.39,-0.02 1.39,-0.02 1.38,-0.01 1.39,-0.02 1.39,-0.02 1.38,-0.02 1.39,-0.02 1.39,-0.01 1.39,-0.02 1.38,-0.02 1.39,-0.02" /><path
         inkscape:connector-curvature="0"
         id="path144"
         style="fill:none;stroke:#a020f0;stroke-width:1.5;stroke-linecap:round;stroke-linejoin:round;stroke-miterlimit:10;stroke-dasharray:none;stroke-opacity:1"
         d="m 63.06,504 0.14,-9.79 1.39,-58.2 1.39,-39.9 1.38,-29.59 1.39,-23.1 1.39,-18.7 1.38,-15.55 1.39,-13.22 1.39,-11.42 1.38,-9.99 1.39,-8.86 1.39,-7.92 1.39,-7.14 1.38,-6.49 1.39,-5.92 1.39,-5.45 1.38,-5.02 1.39,-4.66 1.39,-4.34 1.38,-4.05 1.39,-3.79 1.39,-3.57 1.39,-3.36 1.38,-3.18 1.39,-3 1.39,-2.86 1.38,-2.71 1.39,-2.58 1.39,-2.46 1.38,-2.35 1.39,-2.25 1.39,-2.16 1.39,-2.06 1.38,-1.99 1.39,-1.91 1.39,-1.83 1.38,-1.77 1.39,-1.71 1.39,-1.65 1.38,-1.59 1.39,-1.54 1.39,-1.49 1.39,-1.44 1.38,-1.4 1.39,-1.35 1.39,-1.32 1.38,-1.27 1.39,-1.24 1.39,-1.21 1.39,-1.17 1.38,-1.14 1.39,-1.11 1.39,-1.08 1.38,-1.06 1.39,-1.03 1.39,-1 1.38,-0.98 1.39,-0.95 1.39,-0.94 1.39,-0.91 1.38,-0.89 1.39,-0.87 1.39,-0.85 1.38,-0.83 1.39,-0.82 1.39,-0.79 1.38,-0.78 1.39,-0.77 1.39,-0.75 1.39,-0.73 1.38,-0.72 1.39,-0.71 1.39,-0.69 1.38,-0.68 1.39,-0.66 1.39,-0.66 1.38,-0.64 1.39,-0.63 1.39,-0.62 1.39,-0.6 1.38,-0.6 1.39,-0.59 1.39,-0.57 1.38,-0.57 1.39,-0.55 1.39,-0.55 1.39,-0.54 1.38,-0.53 1.39,-0.52 1.39,-0.51 1.38,-0.51 1.39,-0.49 1.39,-0.49 1.38,-0.48 1.39,-0.47 1.39,-0.47 1.39,-0.46 1.38,-0.45 1.39,-0.45 1.39,-0.44 1.38,-0.43 1.39,-0.42 1.39,-0.42 1.38,-0.42 1.39,-0.41 1.39,-0.4 1.39,-0.4 1.38,-0.39 1.39,-0.38 1.39,-0.38 1.38,-0.38 1.39,-0.37 1.39,-0.36 1.38,-0.36 1.39,-0.36 1.39,-0.35 1.39,-0.35 1.38,-0.34 1.39,-0.34 1.39,-0.33 1.38,-0.33 1.39,-0.32 1.39,-0.32 1.38,-0.32 1.39,-0.31 1.39,-0.31 1.39,-0.31 1.38,-0.3 1.39,-0.3 1.39,-0.29 1.38,-0.29 1.39,-0.29 1.39,-0.28 1.39,-0.28 1.38,-0.28 1.39,-0.27 1.39,-0.27 1.38,-0.27 1.39,-0.27 1.39,-0.26 1.38,-0.26 1.39,-0.25 1.39,-0.26 1.39,-0.24 1.38,-0.25 1.39,-0.25 1.39,-0.24 1.38,-0.24 1.39,-0.23 1.39,-0.24 1.38,-0.23 1.39,-0.23 1.39,-0.22 1.39,-0.23 1.38,-0.22 1.39,-0.22 1.39,-0.21 1.38,-0.22 1.39,-0.21 1.39,-0.21 1.38,-0.21 1.39,-0.21 1.39,-0.2 1.39,-0.2 1.38,-0.2 1.39,-0.2 1.39,-0.19 1.38,-0.2 1.39,-0.19 1.39,-0.19 1.39,-0.18 1.38,-0.19 1.39,-0.18 1.39,-0.19 1.38,-0.18 1.39,-0.18 1.39,-0.17 1.38,-0.18 1.39,-0.17 1.39,-0.17 1.39,-0.17 1.38,-0.17 1.39,-0.17 1.39,-0.16 1.38,-0.17 1.39,-0.16 1.39,-0.16 1.38,-0.16 1.39,-0.16 1.39,-0.15 1.39,-0.16 1.38,-0.15 1.39,-0.15 1.39,-0.15 1.38,-0.15 1.39,-0.15 1.39,-0.14 1.38,-0.15 1.39,-0.14 1.39,-0.14 1.39,-0.15 1.38,-0.14 1.39,-0.13 1.39,-0.14 1.38,-0.14 1.39,-0.13 1.39,-0.13 1.38,-0.14 1.39,-0.13 1.39,-0.13 1.39,-0.13 1.38,-0.12 1.39,-0.13 1.39,-0.13 1.38,-0.12 1.39,-0.12 1.39,-0.13 1.39,-0.12 1.38,-0.12 1.39,-0.12 1.39,-0.11 1.38,-0.12 1.39,-0.12 1.39,-0.11 1.38,-0.12 1.39,-0.11 1.39,-0.11 1.39,-0.11 1.38,-0.11 1.39,-0.11 1.39,-0.11 1.38,-0.11 1.39,-0.1 1.39,-0.11 1.38,-0.1 1.39,-0.11 1.39,-0.1 1.39,-0.1 1.38,-0.1 1.39,-0.11 1.39,-0.1 1.38,-0.09 1.39,-0.1 1.39,-0.1 1.38,-0.1 1.39,-0.09 1.39,-0.1 1.39,-0.09 1.38,-0.09 1.39,-0.1 1.39,-0.09 1.38,-0.09 1.39,-0.09 1.39,-0.09 1.39,-0.09 1.38,-0.09 1.39,-0.08 1.39,-0.09 1.38,-0.09 1.39,-0.08 1.39,-0.09 1.38,-0.08 1.39,-0.08 1.39,-0.09 1.39,-0.08 1.38,-0.08 1.39,-0.08 1.39,-0.08 1.38,-0.08 1.39,-0.08 1.39,-0.08 1.38,-0.07 1.39,-0.08 1.39,-0.08 1.39,-0.07 1.38,-0.08 1.39,-0.07 1.39,-0.08 1.38,-0.07 1.39,-0.07 1.39,-0.08 1.38,-0.07 1.39,-0.07 1.39,-0.07 1.39,-0.07 1.38,-0.07 1.39,-0.07 1.39,-0.07 1.38,-0.07 1.39,-0.06 1.39,-0.07 1.38,-0.07 1.39,-0.06 1.39,-0.07 1.39,-0.06 1.38,-0.07 1.39,-0.06" /><path
         inkscape:connector-curvature="0"
         id="path146"
         style="fill:none;stroke:#0000ff;stroke-width:1.5;stroke-linecap:round;stroke-linejoin:round;stroke-miterlimit:10;stroke-dasharray:none;stroke-opacity:1"
         d="m 59.04,259.2 1.39,-1.85 1.38,-1.84 1.39,-1.82 1.39,-1.8 1.39,-1.78 1.38,-1.76 1.39,-1.75 1.39,-1.73 1.38,-1.71 1.39,-1.69 1.39,-1.68 1.38,-1.66 1.39,-1.65 1.39,-1.62 1.39,-1.62 1.38,-1.59 1.39,-1.58 1.39,-1.56 1.38,-1.55 1.39,-1.53 1.39,-1.52 1.38,-1.5 1.39,-1.49 1.39,-1.47 1.39,-1.46 1.38,-1.44 1.39,-1.43 1.39,-1.42 1.38,-1.4 1.39,-1.38 1.39,-1.38 1.38,-1.35 1.39,-1.35 1.39,-1.33 1.39,-1.32 1.38,-1.31 1.39,-1.29 1.39,-1.28 1.38,-1.26 1.39,-1.26 1.39,-1.24 1.38,-1.23 1.39,-1.22 1.39,-1.2 1.39,-1.19 1.38,-1.18 1.39,-1.17 1.39,-1.16 1.38,-1.14 1.39,-1.14 1.39,-1.12 1.39,-1.11 1.38,-1.1 1.39,-1.09 1.39,-1.08 1.38,-1.07 1.39,-1.06 1.39,-1.04 1.38,-1.04 1.39,-1.03 1.39,-1.01 1.39,-1.01 1.38,-0.99 1.39,-0.99 1.39,-0.98 1.38,-0.96 1.39,-0.96 1.39,-0.94 1.38,-0.94 1.39,-0.93 1.39,-0.92 1.39,-0.91 1.38,-0.9 1.39,-0.89 1.39,-0.88 1.38,-0.88 1.39,-0.86 1.39,-0.86 1.38,-0.85 1.39,-0.84 1.39,-0.83 1.39,-0.82 1.38,-0.81 1.39,-0.81 1.39,-0.8 1.38,-0.79 1.39,-0.78 1.39,-0.78 1.39,-0.76 1.38,-0.76 1.39,-0.75 1.39,-0.75 1.38,-0.74 1.39,-0.72 1.39,-0.73 1.38,-0.71 1.39,-0.71 1.39,-0.7 1.39,-0.69 1.38,-0.69 1.39,-0.68 1.39,-0.67 1.38,-0.67 1.39,-0.66 1.39,-0.65 1.38,-0.65 1.39,-0.64 1.39,-0.63 1.39,-0.63 1.38,-0.62 1.39,-0.62 1.39,-0.61 1.38,-0.6 1.39,-0.6 1.39,-0.59 1.38,-0.58 1.39,-0.58 1.39,-0.57 1.39,-0.57 1.38,-0.56 1.39,-0.56 1.39,-0.55 1.38,-0.55 1.39,-0.54 1.39,-0.53 1.38,-0.53 1.39,-0.52 1.39,-0.52 1.39,-0.52 1.38,-0.5 1.39,-0.51 1.39,-0.5 1.38,-0.49 1.39,-0.49 1.39,-0.48 1.39,-0.48 1.38,-0.47 1.39,-0.47 1.39,-0.47 1.38,-0.46 1.39,-0.45 1.39,-0.45 1.38,-0.45 1.39,-0.44 1.39,-0.44 1.39,-0.43 1.38,-0.43 1.39,-0.42 1.39,-0.42 1.38,-0.42 1.39,-0.41 1.39,-0.41 1.38,-0.4 1.39,-0.4 1.39,-0.4 1.39,-0.39 1.38,-0.39 1.39,-0.38 1.39,-0.38 1.38,-0.38 1.39,-0.37 1.39,-0.37 1.38,-0.36 1.39,-0.36 1.39,-0.36 1.39,-0.36 1.38,-0.35 1.39,-0.34 1.39,-0.35 1.38,-0.34 1.39,-0.33 1.39,-0.34 1.39,-0.33 1.38,-0.32 1.39,-0.33 1.39,-0.32 1.38,-0.32 1.39,-0.31 1.39,-0.31 1.38,-0.31 1.39,-0.3 1.39,-0.3 1.39,-0.3 1.38,-0.3 1.39,-0.29 1.39,-0.29 1.38,-0.29 1.39,-0.28 1.39,-0.28 1.38,-0.28 1.39,-0.28 1.39,-0.27 1.39,-0.27 1.38,-0.27 1.39,-0.26 1.39,-0.27 1.38,-0.25 1.39,-0.26 1.39,-0.26 1.38,-0.25 1.39,-0.25 1.39,-0.24 1.39,-0.25 1.38,-0.24 1.39,-0.24 1.39,-0.24 1.38,-0.23 1.39,-0.23 1.39,-0.23 1.38,-0.23 1.39,-0.23 1.39,-0.22 1.39,-0.22 1.38,-0.22 1.39,-0.22 1.39,-0.21 1.38,-0.21 1.39,-0.21 1.39,-0.21 1.39,-0.21 1.38,-0.2 1.39,-0.2 1.39,-0.2 1.38,-0.2 1.39,-0.2 1.39,-0.19 1.38,-0.19 1.39,-0.19 1.39,-0.19 1.39,-0.19 1.38,-0.18 1.39,-0.19 1.39,-0.18 1.38,-0.18 1.39,-0.17 1.39,-0.18 1.38,-0.17 1.39,-0.17 1.39,-0.17 1.39,-0.17 1.38,-0.17 1.39,-0.17 1.39,-0.16 1.38,-0.16 1.39,-0.16 1.39,-0.16 1.38,-0.16 1.39,-0.15 1.39,-0.16 1.39,-0.15 1.38,-0.15 1.39,-0.15 1.39,-0.15 1.38,-0.14 1.39,-0.15 1.39,-0.14 1.39,-0.14 1.38,-0.15 1.39,-0.13 1.39,-0.14 1.38,-0.14 1.39,-0.13 1.39,-0.14 1.38,-0.13 1.39,-0.13 1.39,-0.13 1.39,-0.13 1.38,-0.13 1.39,-0.12 1.39,-0.13 1.38,-0.12 1.39,-0.12 1.39,-0.12 1.38,-0.12 1.39,-0.12 1.39,-0.12 1.39,-0.12 1.38,-0.11 1.39,-0.12 1.39,-0.11 1.38,-0.11 1.39,-0.11 1.39,-0.11 1.38,-0.11 1.39,-0.11 1.39,-0.1 1.39,-0.11 1.38,-0.1 1.39,-0.11 1.39,-0.1 1.38,-0.1 1.39,-0.1 1.39,-0.1 1.38,-0.1 1.39,-0.09 1.39,-0.1 1.39,-0.09 1.38,-0.1 1.39,-0.09" /><path
         inkscape:connector-curvature="0"
         id="path148"
         style="fill:none;stroke:#006400;stroke-width:1.5;stroke-linecap:round;stroke-linejoin:round;stroke-miterlimit:10;stroke-dasharray:none;stroke-opacity:1"
         d="m 59.04,73.44 1.39,0 1.38,0 1.39,0.02 1.39,0.03 1.39,0.07 1.38,0.12 1.39,0.17 1.39,0.26 1.38,0.35 1.39,0.46 1.39,0.59 1.38,0.71 1.39,0.87 1.39,1.02 1.39,1.18 1.38,1.35 1.39,1.53 1.39,1.7 1.38,1.89 1.39,2.06 1.39,2.24 1.38,2.42 1.39,2.6 1.39,2.76 1.39,2.92 1.38,3.08 1.39,3.22 1.39,3.36 1.38,3.49 1.39,3.61 1.39,3.72 1.38,3.82 1.39,3.9 1.39,3.98 1.39,4.05 1.38,4.1 1.39,4.14 1.39,4.17 1.38,4.2 1.39,4.2 1.39,4.2 1.38,4.19 1.39,4.17 1.39,4.14 1.39,4.09 1.38,4.05 1.39,3.98 1.39,3.92 1.38,3.85 1.39,3.76 1.39,3.68 1.39,3.58 1.38,3.48 1.39,3.37 1.39,3.26 1.38,3.15 1.39,3.03 1.39,2.9 1.38,2.78 1.39,2.65 1.39,2.51 1.39,2.39 1.38,2.25 1.39,2.11 1.39,1.98 1.38,1.84 1.39,1.7 1.39,1.57 1.38,1.43 1.39,1.29 1.39,1.16 1.39,1.02 1.38,0.89 1.39,0.77 1.39,0.63 1.38,0.51 1.39,0.38 1.39,0.26 1.38,0.15 1.39,0.02 1.39,-0.08 1.39,-0.2 1.38,-0.31 1.39,-0.4 1.39,-0.51 1.38,-0.61 1.39,-0.7 1.39,-0.8 1.39,-0.88 1.38,-0.97 1.39,-1.04 1.39,-1.13 1.38,-1.2 1.39,-1.27 1.39,-1.33 1.38,-1.41 1.39,-1.46 1.39,-1.52 1.39,-1.58 1.38,-1.62 1.39,-1.68 1.39,-1.72 1.38,-1.76 1.39,-1.8 1.39,-1.84 1.38,-1.87 1.39,-1.9 1.39,-1.93 1.39,-1.96 1.38,-1.97 1.39,-2 1.39,-2.02 1.38,-2.03 1.39,-2.04 1.39,-2.05 1.38,-2.07 1.39,-2.07 1.39,-2.07 1.39,-2.08 1.38,-2.08 1.39,-2.08 1.39,-2.07 1.38,-2.08 1.39,-2.06 1.39,-2.06 1.38,-2.05 1.39,-2.04 1.39,-2.03 1.39,-2.02 1.38,-2.01 1.39,-1.99 1.39,-1.97 1.38,-1.96 1.39,-1.94 1.39,-1.93 1.39,-1.9 1.38,-1.89 1.39,-1.86 1.39,-1.84 1.38,-1.83 1.39,-1.8 1.39,-1.78 1.38,-1.75 1.39,-1.73 1.39,-1.71 1.39,-1.68 1.38,-1.66 1.39,-1.64 1.39,-1.61 1.38,-1.58 1.39,-1.57 1.39,-1.53 1.38,-1.51 1.39,-1.49 1.39,-1.45 1.39,-1.44 1.38,-1.41 1.39,-1.38 1.39,-1.36 1.38,-1.33 1.39,-1.31 1.39,-1.28 1.38,-1.26 1.39,-1.23 1.39,-1.21 1.39,-1.19 1.38,-1.16 1.39,-1.14 1.39,-1.11 1.38,-1.09 1.39,-1.07 1.39,-1.04 1.39,-1.02 1.38,-1 1.39,-0.98 1.39,-0.96 1.38,-0.93 1.39,-0.91 1.39,-0.89 1.38,-0.88 1.39,-0.85 1.39,-0.83 1.39,-0.81 1.38,-0.79 1.39,-0.77 1.39,-0.76 1.38,-0.73 1.39,-0.72 1.39,-0.7 1.38,-0.69 1.39,-0.66 1.39,-0.65 1.39,-0.63 1.38,-0.62 1.39,-0.6 1.39,-0.59 1.38,-0.57 1.39,-0.55 1.39,-0.54 1.38,-0.53 1.39,-0.51 1.39,-0.5 1.39,-0.49 1.38,-0.47 1.39,-0.46 1.39,-0.45 1.38,-0.43 1.39,-0.42 1.39,-0.42 1.38,-0.4 1.39,-0.38 1.39,-0.38 1.39,-0.37 1.38,-0.36 1.39,-0.34 1.39,-0.34 1.38,-0.33 1.39,-0.32 1.39,-0.31 1.39,-0.3 1.38,-0.29 1.39,-0.28 1.39,-0.27 1.38,-0.27 1.39,-0.26 1.39,-0.25 1.38,-0.24 1.39,-0.24 1.39,-0.23 1.39,-0.22 1.38,-0.22 1.39,-0.21 1.39,-0.2 1.38,-0.2 1.39,-0.19 1.39,-0.18 1.38,-0.18 1.39,-0.18 1.39,-0.17 1.39,-0.16 1.38,-0.16 1.39,-0.15 1.39,-0.15 1.38,-0.14 1.39,-0.14 1.39,-0.14 1.38,-0.13 1.39,-0.13 1.39,-0.12 1.39,-0.12 1.38,-0.11 1.39,-0.11 1.39,-0.11 1.38,-0.11 1.39,-0.1 1.39,-0.1 1.39,-0.09 1.38,-0.09 1.39,-0.09 1.39,-0.09 1.38,-0.08 1.39,-0.08 1.39,-0.08 1.38,-0.07 1.39,-0.07 1.39,-0.07 1.39,-0.07 1.38,-0.07 1.39,-0.06 1.39,-0.06 1.38,-0.06 1.39,-0.06 1.39,-0.06 1.38,-0.05 1.39,-0.05 1.39,-0.05 1.39,-0.05 1.38,-0.05 1.39,-0.04 1.39,-0.04 1.38,-0.05 1.39,-0.04 1.39,-0.04 1.38,-0.03 1.39,-0.04 1.39,-0.04 1.39,-0.03 1.38,-0.03 1.39,-0.04 1.39,-0.03 1.38,-0.03 1.39,-0.03 1.39,-0.02 1.38,-0.03 1.39,-0.03 1.39,-0.02 1.39,-0.02 1.38,-0.03 1.39,-0.02" /><path
         inkscape:connector-curvature="0"
         id="path150"
         style="fill:none;stroke:#ffa500;stroke-width:1.5;stroke-linecap:round;stroke-linejoin:round;stroke-miterlimit:10;stroke-dasharray:none;stroke-opacity:1"
         d="m 59.04,73.44 1.39,0 1.38,0 1.39,0 1.39,0 1.39,0 1.38,0 1.39,0 1.39,0 1.38,0 1.39,0 1.39,0 1.38,0 1.39,0 1.39,0 1.39,0 1.38,0 1.39,0 1.39,0 1.38,0 1.39,0 1.39,0 1.38,0 1.39,0 1.39,0 1.39,0 1.38,0.01 1.39,0 1.39,0.01 1.38,0.01 1.39,0.02 1.39,0.02 1.38,0.04 1.39,0.05 1.39,0.07 1.39,0.1 1.38,0.13 1.39,0.18 1.39,0.22 1.38,0.3 1.39,0.37 1.39,0.47 1.38,0.59 1.39,0.73 1.39,0.88 1.39,1.06 1.38,1.28 1.39,1.51 1.39,1.78 1.38,2.07 1.39,2.39 1.39,2.74 1.39,3.12 1.38,3.53 1.39,3.95 1.39,4.41 1.38,4.88 1.39,5.36 1.39,5.86 1.38,6.36 1.39,6.86 1.39,7.37 1.39,7.86 1.38,8.34 1.39,8.8 1.39,9.23 1.38,9.63 1.39,9.99 1.39,10.32 1.38,10.59 1.39,10.83 1.39,10.99 1.39,11.12 1.38,11.17 1.39,11.17 1.39,11.11 1.38,10.98 1.39,10.79 1.39,10.54 1.38,10.23 1.39,9.86 1.39,9.44 1.39,8.97 1.38,8.44 1.39,7.88 1.39,7.27 1.38,6.63 1.39,5.96 1.39,5.26 1.39,4.55 1.38,3.82 1.39,3.08 1.39,2.34 1.38,1.59 1.39,0.86 1.39,0.13 1.38,-0.57 1.39,-1.28 1.39,-1.94 1.39,-2.6 1.38,-3.21 1.39,-3.79 1.39,-4.35 1.38,-4.88 1.39,-5.35 1.39,-5.8 1.38,-6.2 1.39,-6.58 1.39,-6.9 1.39,-7.19 1.38,-7.44 1.39,-7.66 1.39,-7.83 1.38,-7.98 1.39,-8.08 1.39,-8.15 1.38,-8.19 1.39,-8.21 1.39,-8.19 1.39,-8.15 1.38,-8.08 1.39,-7.99 1.39,-7.88 1.38,-7.75 1.39,-7.61 1.39,-7.44 1.38,-7.28 1.39,-7.08 1.39,-6.89 1.39,-6.69 1.38,-6.47 1.39,-6.26 1.39,-6.04 1.38,-5.82 1.39,-5.59 1.39,-5.37 1.39,-5.15 1.38,-4.92 1.39,-4.71 1.39,-4.49 1.38,-4.27 1.39,-4.07 1.39,-3.86 1.38,-3.66 1.39,-3.48 1.39,-3.28 1.39,-3.1 1.38,-2.93 1.39,-2.76 1.39,-2.6 1.38,-2.45 1.39,-2.29 1.39,-2.16 1.38,-2.02 1.39,-1.89 1.39,-1.76 1.39,-1.66 1.38,-1.54 1.39,-1.44 1.39,-1.34 1.38,-1.24 1.39,-1.16 1.39,-1.08 1.38,-1 1.39,-0.92 1.39,-0.86 1.39,-0.79 1.38,-0.74 1.39,-0.68 1.39,-0.62 1.38,-0.58 1.39,-0.53 1.39,-0.49 1.39,-0.46 1.38,-0.41 1.39,-0.38 1.39,-0.35 1.38,-0.32 1.39,-0.3 1.39,-0.27 1.38,-0.25 1.39,-0.22 1.39,-0.21 1.39,-0.19 1.38,-0.17 1.39,-0.16 1.39,-0.14 1.38,-0.13 1.39,-0.12 1.39,-0.11 1.38,-0.1 1.39,-0.09 1.39,-0.08 1.39,-0.07 1.38,-0.07 1.39,-0.06 1.39,-0.05 1.38,-0.05 1.39,-0.05 1.39,-0.04 1.38,-0.04 1.39,-0.03 1.39,-0.03 1.39,-0.03 1.38,-0.02 1.39,-0.03 1.39,-0.02 1.38,-0.01 1.39,-0.02 1.39,-0.01 1.38,-0.02 1.39,-0.01 1.39,-0.01 1.39,-0.01 1.38,-0.01 1.39,-0.01 1.39,0 1.38,-0.01 1.39,0 1.39,-0.01 1.39,0 1.38,-0.01 1.39,0 1.39,0 1.38,-0.01 1.39,0 1.39,0 1.38,0 1.39,-0.01 1.39,0 1.39,0 1.38,0 1.39,0 1.39,0 1.38,0 1.39,0 1.39,0 1.38,-0.01 1.39,0 1.39,0 1.39,0 1.38,0 1.39,0 1.39,0 1.38,0 1.39,0 1.39,0 1.38,0 1.39,0 1.39,0 1.39,0 1.38,0 1.39,0 1.39,0 1.38,0 1.39,0 1.39,0 1.39,0 1.38,0 1.39,0 1.39,0 1.38,0 1.39,0 1.39,0 1.38,0 1.39,0 1.39,0 1.39,0 1.38,0 1.39,0 1.39,0 1.38,0 1.39,0 1.39,0 1.38,0 1.39,0 1.39,0 1.39,0 1.38,0 1.39,0 1.39,0 1.38,0 1.39,0 1.39,0 1.38,0 1.39,0 1.39,0 1.39,0 1.38,0 1.39,0 1.39,0 1.38,0 1.39,0 1.39,0 1.38,0 1.39,0 1.39,0 1.39,0 1.38,0 1.39,0" /><path
         inkscape:connector-curvature="0"
         id="path154"
         style="fill:none;stroke:#ff0000;stroke-width:1.5;stroke-linecap:round;stroke-linejoin:round;stroke-miterlimit:10;stroke-dasharray:none;stroke-opacity:1"
         d="m 363.99712,396.26404 30.83581,0" /><path
         inkscape:connector-curvature="0"
         id="path156"
         style="fill:none;stroke:#a020f0;stroke-width:1.5;stroke-linecap:round;stroke-linejoin:round;stroke-miterlimit:10;stroke-dasharray:none;stroke-opacity:1"
         d="m 363.99712,375.70683 30.83581,0" /><path
         inkscape:connector-curvature="0"
         id="path158"
         style="fill:none;stroke:#0000ff;stroke-width:1.5;stroke-linecap:round;stroke-linejoin:round;stroke-miterlimit:10;stroke-dasharray:none;stroke-opacity:1"
         d="m 363.99712,355.14963 30.83581,0" /><path
         inkscape:connector-curvature="0"
         id="path160"
         style="fill:none;stroke:#006400;stroke-width:1.5;stroke-linecap:round;stroke-linejoin:round;stroke-miterlimit:10;stroke-dasharray:none;stroke-opacity:1"
         d="m 363.99712,334.59242 30.83581,0" /><path
         inkscape:connector-curvature="0"
         id="path162"
         style="fill:none;stroke:#ffa500;stroke-width:1.5;stroke-linecap:round;stroke-linejoin:round;stroke-miterlimit:10;stroke-dasharray:none;stroke-opacity:1"
         d="m 363.99712,314.03521 30.83581,0" /><text
         id="text164"
         style="font-variant:normal;font-weight:normal;font-size:17.13100624px;font-family:Symbol;-inkscape-font-specification:Symbol;writing-mode:lr-tb;fill:#000000;fill-opacity:1;fill-rule:nonzero;stroke:none"
         transform="scale(1,-1)"
         x="410.25085"
         y="-390.41095"><tspan
           id="tspan166"
           y="-390.41095"
           x="410.25085">α</tspan></text>
<text
         id="text168"
         style="font-variant:normal;font-weight:normal;font-size:17.13100624px;font-family:Helvetica;-inkscape-font-specification:Helvetica;writing-mode:lr-tb;fill:#000000;fill-opacity:1;fill-rule:nonzero;stroke:none"
         transform="scale(1,-1)"
         x="421.0719"
         y="-390.41095"><tspan
           id="tspan170"
           sodipodi:role="line"
           y="-390.41095"
           x="421.0719 431.07642 440.60129 445.36371">=0.1</tspan></text>
<text
         id="text172"
         style="font-variant:normal;font-weight:normal;font-size:17.13100624px;font-family:Symbol;-inkscape-font-specification:Symbol;writing-mode:lr-tb;fill:#000000;fill-opacity:1;fill-rule:nonzero;stroke:none"
         transform="scale(1,-1)"
         x="410.25085"
         y="-369.85373"><tspan
           id="tspan174"
           y="-369.85373"
           x="410.25085">α</tspan></text>
<text
         id="text176"
         style="font-variant:normal;font-weight:normal;font-size:17.13100624px;font-family:Helvetica;-inkscape-font-specification:Helvetica;writing-mode:lr-tb;fill:#000000;fill-opacity:1;fill-rule:nonzero;stroke:none"
         transform="scale(1,-1)"
         x="421.0719"
         y="-369.85373"><tspan
           id="tspan178"
           sodipodi:role="line"
           y="-369.85373"
           x="421.0719 431.07642 440.60129 445.36371">=0.5</tspan></text>
<text
         id="text180"
         style="font-variant:normal;font-weight:normal;font-size:17.13100624px;font-family:Symbol;-inkscape-font-specification:Symbol;writing-mode:lr-tb;fill:#000000;fill-opacity:1;fill-rule:nonzero;stroke:none"
         transform="scale(1,-1)"
         x="410.25085"
         y="-349.28223"><tspan
           id="tspan182"
           y="-349.28223"
           x="410.25085">α</tspan></text>
<text
         id="text184"
         style="font-variant:normal;font-weight:normal;font-size:17.13100624px;font-family:Helvetica;-inkscape-font-specification:Helvetica;writing-mode:lr-tb;fill:#000000;fill-opacity:1;fill-rule:nonzero;stroke:none"
         transform="scale(1,-1)"
         x="421.0719"
         y="-349.28223"><tspan
           id="tspan186"
           sodipodi:role="line"
           y="-349.28223"
           x="421.0719 431.07642">=1</tspan></text>
<text
         id="text188"
         style="font-variant:normal;font-weight:normal;font-size:17.13100624px;font-family:Symbol;-inkscape-font-specification:Symbol;writing-mode:lr-tb;fill:#000000;fill-opacity:1;fill-rule:nonzero;stroke:none"
         transform="scale(1,-1)"
         x="410.25085"
         y="-328.8678"><tspan
           id="tspan190"
           y="-328.8678"
           x="410.25085">α</tspan></text>
<text
         id="text192"
         style="font-variant:normal;font-weight:normal;font-size:17.13100624px;font-family:Helvetica;-inkscape-font-specification:Helvetica;writing-mode:lr-tb;fill:#000000;fill-opacity:1;fill-rule:nonzero;stroke:none"
         transform="scale(1,-1)"
         x="421.0719"
         y="-328.8678"><tspan
           id="tspan194"
           sodipodi:role="line"
           y="-328.8678"
           x="421.0719 431.07642">=5</tspan></text>
<text
         id="text196"
         style="font-variant:normal;font-weight:normal;font-size:17.13100624px;font-family:Symbol;-inkscape-font-specification:Symbol;writing-mode:lr-tb;fill:#000000;fill-opacity:1;fill-rule:nonzero;stroke:none"
         transform="scale(1,-1)"
         x="410.25085"
         y="-308.18213"><tspan
           id="tspan198"
           y="-308.18213"
           x="410.25085">α</tspan></text>
<text
         id="text200"
         style="font-variant:normal;font-weight:normal;font-size:17.13100624px;font-family:Helvetica;-inkscape-font-specification:Helvetica;writing-mode:lr-tb;fill:#000000;fill-opacity:1;fill-rule:nonzero;stroke:none"
         transform="scale(1,-1)"
         x="421.0719"
         y="-308.18213"><tspan
           id="tspan202"
           sodipodi:role="line"
           y="-308.18213"
           x="421.0719 431.07642 440.60129">=20</tspan></text>
</g></g></svg>