<?xml version="1.0" encoding="UTF-8" standalone="no"?>
<!-- Created with Inkscape (http://www.inkscape.org/) -->

<svg
   xmlns:dc="http://purl.org/dc/elements/1.1/"
   xmlns:cc="http://creativecommons.org/ns#"
   xmlns:rdf="http://www.w3.org/1999/02/22-rdf-syntax-ns#"
   xmlns:svg="http://www.w3.org/2000/svg"
   xmlns="http://www.w3.org/2000/svg"
   xmlns:sodipodi="http://sodipodi.sourceforge.net/DTD/sodipodi-0.dtd"
   xmlns:inkscape="http://www.inkscape.org/namespaces/inkscape"
   version="1.1"
   id="svg2"
   xml:space="preserve"
   width="506.06216"
   height="459.9801"
   viewBox="0 0 506.06217 459.98011"
   sodipodi:docname="ukorzenianie-01.svg"
   inkscape:export-filename="/home/grzeg/Dokumenty/filogenetyka/wyklady/pics-drzewa/ukorzenianie-01.png"
   inkscape:export-xdpi="56.910004"
   inkscape:export-ydpi="56.910004"
   inkscape:version="0.92.2 (5c3e80d, 2017-08-06)"><metadata
     id="metadata8"><rdf:RDF><cc:Work
         rdf:about=""><dc:format>image/svg+xml</dc:format><dc:type
           rdf:resource="http://purl.org/dc/dcmitype/StillImage" /><dc:title></dc:title></cc:Work></rdf:RDF></metadata><defs
     id="defs6" /><sodipodi:namedview
     pagecolor="#ffffff"
     bordercolor="#666666"
     borderopacity="1"
     objecttolerance="10"
     gridtolerance="10"
     guidetolerance="10"
     inkscape:pageopacity="0"
     inkscape:pageshadow="2"
     inkscape:window-width="1654"
     inkscape:window-height="920"
     id="namedview4"
     showgrid="false"
     fit-margin-top="10"
     fit-margin-bottom="10"
     fit-margin-left="10"
     fit-margin-right="10"
     inkscape:zoom="0.52427357"
     inkscape:cx="252.78885"
     inkscape:cy="224.90146"
     inkscape:window-x="0"
     inkscape:window-y="25"
     inkscape:window-maximized="0"
     inkscape:current-layer="g10" /><g
     id="g10"
     inkscape:groupmode="layer"
     inkscape:label="ink_ext_XXXXXX"
     transform="matrix(1.3333333,0,0,-1.3333333,7.12885,460.15199)"><g
       id="g12"
       transform="scale(0.1)"><path
         d="m 678.879,1890.72 c -212.801,0 -416.09,0.03 -626.9181,0.03"
         style="fill:none;stroke:#000000;stroke-width:60;stroke-linecap:round;stroke-linejoin:round;stroke-miterlimit:10;stroke-dasharray:none;stroke-opacity:1"
         id="path14"
         inkscape:connector-curvature="0" /><path
         d="m 1341.18,2765.25 c -212.8,0 -416.09,0.03 -626.918,0.03"
         style="fill:none;stroke:#000000;stroke-width:60;stroke-linecap:round;stroke-linejoin:round;stroke-miterlimit:10;stroke-dasharray:none;stroke-opacity:1"
         id="path16"
         inkscape:connector-curvature="0" /><path
         d="m 711.699,942.109 c 0,611.091 5.551,1194.871 5.551,1800.291"
         style="fill:none;stroke:#000000;stroke-width:60;stroke-linecap:round;stroke-linejoin:round;stroke-miterlimit:10;stroke-dasharray:none;stroke-opacity:1"
         id="path18"
         inkscape:connector-curvature="0" /><path
         d="m 2438.92,3242.87 c -354.38,0 -692.92,0.04 -1044.01,0.04"
         style="fill:none;stroke:#000000;stroke-width:60;stroke-linecap:round;stroke-linejoin:round;stroke-miterlimit:10;stroke-dasharray:none;stroke-opacity:1"
         id="path20"
         inkscape:connector-curvature="0" /><path
         d="m 2192.77,2303.38 c -273.38,0 -534.55,0.03 -805.39,0.03"
         style="fill:#000000;fill-opacity:1;fill-rule:evenodd;stroke:none"
         id="path22"
         inkscape:connector-curvature="0" /><path
         d="m 2192.77,2303.38 c -273.38,0 -534.55,0.03 -805.39,0.03"
         style="fill:none;stroke:#000000;stroke-width:60;stroke-linecap:round;stroke-linejoin:round;stroke-miterlimit:10;stroke-dasharray:none;stroke-opacity:1"
         id="path24"
         inkscape:connector-curvature="0" /><path
         d="m 1386.42,2303.25 c 0,313.09 0.07,612.2 0.07,922.39"
         style="fill:none;stroke:#000000;stroke-width:60;stroke-linecap:round;stroke-linejoin:round;stroke-miterlimit:10;stroke-dasharray:none;stroke-opacity:1"
         id="path26"
         inkscape:connector-curvature="0" /><path
         d="m 1863.16,933.371 c -390.23,0 -763.03,0.051 -1149.64,0.051"
         style="fill:none;stroke:#000000;stroke-width:60;stroke-linecap:round;stroke-linejoin:round;stroke-miterlimit:10;stroke-dasharray:none;stroke-opacity:1"
         id="path28"
         inkscape:connector-curvature="0" /><path
         d="m 2543.81,1411.03 c -212.81,0 -416.1,0.02 -626.93,0.02"
         style="fill:none;stroke:#000000;stroke-width:60;stroke-linecap:round;stroke-linejoin:round;stroke-miterlimit:10;stroke-dasharray:none;stroke-opacity:1"
         id="path30"
         inkscape:connector-curvature="0" /><path
         d="m 2536.28,471.531 c -212.8,0 -416.09,0.02 -626.92,0.02"
         style="fill:none;stroke:#000000;stroke-width:60;stroke-linecap:round;stroke-linejoin:round;stroke-miterlimit:10;stroke-dasharray:none;stroke-opacity:1"
         id="path32"
         inkscape:connector-curvature="0" /><path
         d="m 1908.4,471.391 c 0,313.089 0.06,612.199 0.06,922.389"
         style="fill:none;stroke:#000000;stroke-width:60;stroke-linecap:round;stroke-linejoin:round;stroke-miterlimit:10;stroke-dasharray:none;stroke-opacity:1"
         id="path34"
         inkscape:connector-curvature="0" /><path
         d="m 2670.86,2783.55 c -149.67,0 -292.65,0.02 -440.93,0.02"
         style="fill:#000000;fill-opacity:1;fill-rule:evenodd;stroke:none"
         id="path36"
         inkscape:connector-curvature="0" /><path
         d="m 2670.86,2783.55 c -149.67,0 -292.65,0.02 -440.93,0.02"
         style="fill:none;stroke:#000000;stroke-width:60;stroke-linecap:round;stroke-linejoin:round;stroke-miterlimit:10;stroke-dasharray:none;stroke-opacity:1"
         id="path38"
         inkscape:connector-curvature="0" /><path
         d="m 3096.59,1844.04 c -296.73,0 -580.21,0.03 -874.19,0.03"
         style="fill:none;stroke:#000000;stroke-width:60;stroke-linecap:round;stroke-linejoin:round;stroke-miterlimit:10;stroke-dasharray:none;stroke-opacity:1"
         id="path40"
         inkscape:connector-curvature="0" /><path
         d="m 2221.45,1843.9 c 0,155.71 0.03,304.46 0.03,458.72"
         style="fill:none;stroke:#000000;stroke-width:60;stroke-linecap:round;stroke-linejoin:round;stroke-miterlimit:10;stroke-dasharray:none;stroke-opacity:1"
         id="path42"
         inkscape:connector-curvature="0" /><path
         d="m 2224.82,2316.94 c 0,156.74 -2.64,306.47 -2.64,461.74"
         style="fill:#000000;fill-opacity:1;fill-rule:evenodd;stroke:none"
         id="path44"
         inkscape:connector-curvature="0" /><path
         d="m 2224.82,2316.94 c 0,156.74 -2.64,306.47 -2.64,461.74"
         style="fill:none;stroke:#000000;stroke-width:60;stroke-linecap:round;stroke-linejoin:round;stroke-miterlimit:10;stroke-dasharray:none;stroke-opacity:1"
         id="path46"
         inkscape:connector-curvature="0" /><path
         d="m 2801.04,187.57 c -85.21,0 -166.61,-0.011 -251.02,-0.011"
         style="fill:none;stroke:#000000;stroke-width:60;stroke-linecap:round;stroke-linejoin:round;stroke-miterlimit:10;stroke-dasharray:none;stroke-opacity:1"
         id="path48"
         inkscape:connector-curvature="0" /><path
         d="m 3400.32,759.871 c -290.08,0 -567.2,-8.281 -854.58,-8.281"
         style="fill:none;stroke:#000000;stroke-width:60;stroke-linecap:round;stroke-linejoin:round;stroke-miterlimit:10;stroke-dasharray:none;stroke-opacity:1"
         id="path50"
         inkscape:connector-curvature="0" /><path
         d="m 2545.19,752.461 c 0,-188.231 0.04,-368.039 0.04,-554.52"
         style="fill:none;stroke:#000000;stroke-width:60;stroke-linecap:round;stroke-linejoin:round;stroke-miterlimit:10;stroke-dasharray:none;stroke-opacity:1"
         id="path52"
         inkscape:connector-curvature="0" /><path
         d="m 2806.81,3118.45 h -56.6 l -22.5,58.53 h -103 l -21.27,-58.53 h -55.2 l 100.37,257.69 h 55.02 z m -95.8,101.95 -35.5,95.62 -34.81,-95.62 h 70.31"
         style="fill:#000000;fill-opacity:1;fill-rule:nonzero;stroke:none"
         id="path54"
         inkscape:connector-curvature="0" /><path
         d="m 2815.64,2931.88 h 103.01 c 20.39,0 35.6,-0.85 45.62,-2.55 10.02,-1.7 18.98,-5.25 26.89,-10.64 7.91,-5.39 14.5,-12.56 19.78,-21.53 5.27,-8.96 7.91,-19.01 7.91,-30.15 0,-12.07 -3.26,-23.14 -9.76,-33.22 -6.5,-10.08 -15.32,-17.64 -26.45,-22.67 15.7,-4.57 27.77,-12.37 36.21,-23.38 8.43,-11.02 12.65,-23.97 12.65,-38.85 0,-11.72 -2.72,-23.12 -8.17,-34.19 -5.45,-11.07 -12.89,-19.92 -22.32,-26.54 -9.44,-6.62 -21.07,-10.7 -34.9,-12.22 -8.67,-0.94 -29.59,-1.52 -62.75,-1.76 h -87.72 z m 52.03,-42.89 v -59.59 h 34.11 c 20.27,0 32.87,0.29 37.79,0.88 8.91,1.05 15.91,4.13 21.01,9.22 5.09,5.1 7.64,11.81 7.64,20.13 0,7.97 -2.2,14.44 -6.59,19.42 -4.39,4.99 -10.93,8 -19.6,9.06 -5.16,0.58 -19.98,0.88 -44.47,0.88 z m 0,-102.48 v -68.91 h 48.17 c 18.75,0 30.64,0.53 35.68,1.58 7.74,1.41 14.04,4.84 18.9,10.28 4.86,5.45 7.29,12.75 7.29,21.89 0,7.73 -1.87,14.3 -5.62,19.69 -3.75,5.39 -9.17,9.31 -16.26,11.77 -7.09,2.47 -22.47,3.7 -46.14,3.7 h -42.02"
         style="fill:#000000;fill-opacity:1;fill-rule:nonzero;stroke:none"
         id="path56"
         inkscape:connector-curvature="0" /><path
         d="m 3371.39,1817.7 50.45,-15.99 c -7.74,-28.13 -20.6,-49.02 -38.59,-62.67 -17.99,-13.65 -40.81,-20.48 -68.46,-20.48 -34.22,0 -62.35,11.69 -84.38,35.07 -22.03,23.38 -33.05,55.34 -33.05,95.89 0,42.89 11.08,76.2 33.23,99.93 22.14,23.73 51.27,35.6 87.36,35.6 31.52,0 57.13,-9.32 76.82,-27.95 11.71,-11.02 20.5,-26.84 26.36,-47.46 l -51.5,-12.31 c -3.05,13.36 -9.41,23.91 -19.07,31.64 -9.67,7.74 -21.42,11.61 -35.25,11.61 -19.1,0 -34.6,-6.86 -46.49,-20.57 -11.9,-13.71 -17.84,-35.92 -17.84,-66.62 0,-32.58 5.86,-55.78 17.57,-69.61 11.72,-13.83 26.96,-20.74 45.71,-20.74 13.83,0 25.72,4.39 35.68,13.18 9.96,8.79 17.11,22.62 21.45,41.48"
         style="fill:#000000;fill-opacity:1;fill-rule:nonzero;stroke:none"
         id="path58"
         inkscape:connector-curvature="0" /><path
         d="m 2654.41,1558.66 h 95.09 c 21.45,0 37.8,-1.65 49.05,-4.93 15.11,-4.45 28.06,-12.36 38.84,-23.73 10.79,-11.36 18.99,-25.28 24.61,-41.74 5.63,-16.47 8.44,-36.77 8.44,-60.91 0,-21.21 -2.64,-39.5 -7.91,-54.85 -6.44,-18.75 -15.64,-33.92 -27.6,-45.52 -9.02,-8.79 -21.21,-15.65 -36.56,-20.57 -11.48,-3.63 -26.84,-5.45 -46.05,-5.45 h -97.91 z m 52.03,-43.6 v -170.68 h 38.84 c 14.54,0 25.02,0.82 31.47,2.46 8.44,2.11 15.44,5.68 21.01,10.72 5.56,5.04 10.1,13.33 13.62,24.87 3.51,11.55 5.27,27.28 5.27,47.2 0,19.92 -1.76,35.22 -5.27,45.88 -3.52,10.66 -8.44,18.99 -14.77,24.96 -6.33,5.98 -14.35,10.02 -24.08,12.13 -7.26,1.64 -21.5,2.46 -42.71,2.46 h -23.38"
         style="fill:#000000;fill-opacity:1;fill-rule:nonzero;stroke:none"
         id="path60"
         inkscape:connector-curvature="0" /><path
         d="m 3471.01,634.07 v 257.7 h 191.07 v -43.598 h -139.04 v -57.133 h 129.37 v -43.41 H 3523.04 V 677.488 H 3667 V 634.07 h -195.99"
         style="fill:#000000;fill-opacity:1;fill-rule:nonzero;stroke:none"
         id="path62"
         inkscape:connector-curvature="0" /><path
         d="M 2903.28,76.2891 V 333.98 h 176.66 v -43.589 h -124.63 v -61 h 107.58 v -43.59 H 2955.31 V 76.2891 h -52.03"
         style="fill:#000000;fill-opacity:1;fill-rule:nonzero;stroke:none"
         id="path64"
         inkscape:connector-curvature="0" /></g></g></svg>